<svg width="319" height="317" viewBox="0 0 319 317" fill="none" xmlns="http://www.w3.org/2000/svg">
<path d="M27.8569 129.877C43.8217 60.6246 111.456 15.4271 182.219 28.0479" stroke="url(#paint0_linear)" stroke-width="6" stroke-miterlimit="10" stroke-linecap="round" stroke-linejoin="round"/>
<path d="M170.029 294.055C158.595 295.026 146.945 294.486 135.187 292.437C90.2056 284.455 54.5007 254.898 36.7021 216.389" stroke="url(#paint1_linear)" stroke-width="6" stroke-miterlimit="10" stroke-linecap="round" stroke-linejoin="round"/>
<path d="M290.952 183.704C283.077 228.038 254.276 263.419 216.521 281.434" stroke="url(#paint2_linear)" stroke-width="6" stroke-miterlimit="10" stroke-linecap="round" stroke-linejoin="round"/>
<path d="M237.234 51.2393C263.662 70.3322 282.432 98.4863 289.659 130.416" stroke="url(#paint3_linear)" stroke-width="6" stroke-miterlimit="10" stroke-linecap="round" stroke-linejoin="round"/>
<path d="M210.59 42.2872C213.39 42.2872 215.66 40.0174 215.66 37.2173C215.66 34.4173 213.39 32.1475 210.59 32.1475C207.79 32.1475 205.52 34.4173 205.52 37.2173C205.52 40.0174 207.79 42.2872 210.59 42.2872Z" fill="#F8006D"/>
<path d="M25.0528 164.72C27.8528 164.72 30.1227 162.45 30.1227 159.65C30.1227 156.85 27.8528 154.58 25.0528 154.58C22.2528 154.58 19.9829 156.85 19.9829 159.65C19.9829 162.45 22.2528 164.72 25.0528 164.72Z" fill="#F8006D"/>
<path d="M29.5836 195.246C32.3836 195.246 34.6534 192.976 34.6534 190.176C34.6534 187.376 32.3836 185.106 29.5836 185.106C26.7835 185.106 24.5137 187.376 24.5137 190.176C24.5137 192.976 26.7835 195.246 29.5836 195.246Z" fill="#F8006D"/>
<path d="M30.0159 148.109C46.1607 148.109 59.2487 135.021 59.2487 118.876C59.2487 102.731 46.1607 89.6431 30.0159 89.6431C13.8711 89.6431 0.783203 102.731 0.783203 118.876C0.783203 135.021 13.8711 148.109 30.0159 148.109Z" fill="#A0A6FF"/>
<path d="M26.1332 122.327C29.2614 118.875 32.4975 115.423 35.6257 111.863C35.0864 112.295 34.547 112.618 34.0077 113.05C30.7716 115.423 27.5355 117.796 24.2994 120.277C24.0836 120.385 24.0836 120.493 24.0836 120.816C24.5151 122.758 24.8387 124.7 25.2702 126.641C25.2702 126.857 25.2702 127.181 25.1623 127.396C24.9466 128.475 24.7309 129.554 24.5151 130.74C24.5151 130.848 24.5151 130.848 24.4073 130.956C24.1915 129.985 24.0836 129.014 23.8679 128.044C23.5443 125.886 23.1128 123.729 22.7892 121.679C22.7892 121.571 22.6813 121.464 22.5735 121.464C20.6318 121.14 18.5823 120.816 16.6406 120.601C15.3462 120.385 14.8068 119.198 15.5619 118.012C15.7777 117.688 16.1013 117.364 16.5328 117.149C23.9758 113.697 31.4188 110.137 38.9697 106.685C39.4012 106.47 39.9405 106.362 40.4799 106.254C40.5877 106.254 40.6956 106.254 40.8035 106.254C41.6664 106.254 42.0979 106.793 41.99 107.656C41.7743 108.951 41.4507 110.353 41.235 111.647C40.4799 115.531 39.7248 119.414 38.9697 123.189C38.4303 125.778 37.891 128.367 37.3516 130.956C37.2438 131.603 36.9202 132.251 36.3808 132.682C35.9493 133.006 35.7336 133.006 35.3021 132.682C34.547 131.927 33.7919 131.064 33.0368 130.201C30.7716 127.72 28.6142 125.131 26.3489 122.65C26.241 122.434 26.241 122.327 26.1332 122.327Z" fill="white"/>
<path d="M188.368 316.924C204.513 316.924 217.601 303.836 217.601 287.691C217.601 271.546 204.513 258.458 188.368 258.458C172.223 258.458 159.135 271.546 159.135 287.691C159.135 303.836 172.223 316.924 188.368 316.924Z" fill="#A0A6FF"/>
<path d="M203.902 282.19C201.637 278.198 198.185 276.149 193.547 276.041C190.526 276.041 187.398 276.041 184.378 276.041C183.731 276.041 183.083 276.041 182.544 276.149C179.2 276.688 176.611 278.414 174.67 281.111C173.051 283.376 172.404 285.965 172.62 288.77C172.836 290.819 173.483 292.653 174.67 294.271C174.777 294.379 174.777 294.595 174.67 294.703C174.022 296.213 173.051 297.399 171.649 298.262C171.433 298.37 171.218 298.586 171.326 298.909C171.433 299.233 171.649 299.341 171.865 299.341C174.022 299.665 176.072 299.233 177.906 297.939C178.121 297.831 178.337 297.723 178.553 297.939C180.171 298.909 181.897 299.341 183.731 299.449C185.457 299.449 187.182 299.449 189.016 299.449C190.526 299.449 191.929 299.449 193.439 299.449C194.086 299.449 194.733 299.449 195.273 299.341C199.264 298.694 202.284 296.536 204.118 292.869C205.952 289.309 205.844 285.641 203.902 282.19ZM181.573 290.172C180.171 290.172 179.092 288.985 179.2 287.583C179.2 286.289 180.279 285.318 181.573 285.318C182.976 285.318 184.054 286.397 183.946 287.799C184.054 289.093 182.976 290.172 181.573 290.172ZM189.124 290.388C187.722 290.388 186.751 289.309 186.751 287.907C186.751 286.504 187.83 285.426 189.232 285.534C190.526 285.534 191.605 286.612 191.605 288.015C191.497 289.309 190.419 290.388 189.124 290.388ZM196.459 290.496C195.273 290.496 194.086 289.309 194.194 288.015C194.194 286.612 195.273 285.641 196.675 285.641C197.969 285.641 199.048 286.72 199.048 288.122C199.048 289.525 197.969 290.496 196.459 290.496Z" fill="white"/>
<path d="M66.6917 281.866C82.8365 281.866 95.9244 268.778 95.9244 252.634C95.9244 236.489 82.8365 223.401 66.6917 223.401C50.5469 223.401 37.459 236.489 37.459 252.634C37.459 268.778 50.5469 281.866 66.6917 281.866Z" fill="#A0A6FF"/>
<path d="M135.297 58.5758C151.442 58.5758 164.53 45.4879 164.53 29.3431C164.53 13.1983 151.442 0.110352 135.297 0.110352C119.152 0.110352 106.064 13.1983 106.064 29.3431C106.064 45.4879 119.152 58.5758 135.297 58.5758Z" fill="#A0A6FF"/>
<path d="M264.955 102.587C281.1 102.587 294.188 89.4986 294.188 73.3538C294.188 57.209 281.1 44.1211 264.955 44.1211C248.811 44.1211 235.723 57.209 235.723 73.3538C235.723 89.4986 248.811 102.587 264.955 102.587Z" fill="#A0A6FF"/>
<path d="M96.655 232.636C87.9176 227.89 103.235 190.891 107.118 183.664C111.002 176.436 118.445 173.416 126.104 177.515C133.762 181.614 135.488 189.489 131.605 196.716C127.722 203.943 105.5 237.275 96.655 232.636Z" fill="#D5D6F7"/>
<path d="M245.515 198.98C244.221 189.056 204.201 190.243 196.003 191.322C187.805 192.4 182.411 198.225 183.49 206.855C184.569 215.485 191.257 219.799 199.455 218.829C207.653 217.642 246.81 208.797 245.515 198.98Z" fill="#D5D6F7"/>
<path d="M161.054 238.676C162.241 232.635 158.357 226.81 152.317 225.732C146.276 224.545 140.451 228.428 139.372 234.469C138.186 240.51 142.069 246.335 148.11 247.414C154.043 248.6 159.868 244.609 161.054 238.676Z" fill="url(#paint4_linear)"/>
<path d="M137.214 124.334C140.882 125.089 144.441 122.608 145.197 118.94L153.287 77.7342C154.042 74.0666 151.561 70.5069 147.893 69.7518C144.226 68.9967 140.666 71.4777 139.911 75.1453L131.821 116.352C131.066 120.019 133.547 123.579 137.214 124.334Z" fill="#C7CAFF"/>
<path d="M205.714 137.71C209.381 138.465 212.941 135.984 213.696 132.316L221.786 91.1101C222.541 87.4426 220.06 83.8829 216.393 83.1278C212.725 82.3727 209.165 84.8537 208.41 88.5213L200.32 129.728C199.673 133.395 202.046 136.955 205.714 137.71Z" fill="#C7CAFF"/>
<path d="M181.01 81.9407C203.771 86.3634 218.657 108.477 214.234 131.345L210.89 148.604C206.468 171.365 188.022 167.266 165.261 162.843C142.501 158.42 123.839 155.292 128.37 132.532L131.714 115.273C136.136 92.2962 158.25 77.4102 181.01 81.9407Z" fill="url(#paint5_radial)"/>
<path d="M125.24 123.256C120.386 148.282 137.214 169.748 162.24 174.602C187.265 179.456 210.997 165.972 215.851 140.946C217.901 130.375 209.271 128.541 208.408 133.288C206.898 140.946 204.74 149.576 202.044 151.302C197.19 154.43 182.951 154.646 166.77 151.518C150.698 148.389 137.753 142.78 134.301 139.436C132.252 137.495 135.164 124.874 135.919 120.667C137.106 115.058 127.182 113.332 125.24 123.256Z" fill="url(#paint6_linear)"/>
<path d="M185.432 136.308C187.265 136.632 189.099 135.445 189.423 133.611L192.551 117.862C192.875 116.028 191.688 114.195 189.854 113.871C188.021 113.547 186.187 114.734 185.863 116.568L182.735 132.317C182.303 134.151 183.49 135.984 185.432 136.308Z" fill="white"/>
<path d="M185.216 137.386C182.843 136.955 181.225 134.582 181.657 132.209L184.785 116.46C185.216 114.086 187.589 112.468 189.963 112.9C192.336 113.331 193.954 115.704 193.522 118.078L190.394 133.827C189.963 136.308 187.589 137.818 185.216 137.386ZM189.531 114.949C188.237 114.734 187.05 115.489 186.834 116.783L183.706 132.532C183.49 133.827 184.245 135.013 185.54 135.229C186.834 135.445 188.021 134.69 188.237 133.395L191.365 117.646C191.689 116.46 190.826 115.165 189.531 114.949Z" fill="white"/>
<path d="M163.641 132.102C165.475 132.426 167.309 131.239 167.633 129.406L170.761 113.657C171.084 111.823 169.898 109.989 168.064 109.665C166.23 109.342 164.397 110.528 164.073 112.362L160.945 128.111C160.513 129.945 161.808 131.671 163.641 132.102Z" fill="white"/>
<path d="M163.426 133.072C161.053 132.64 159.435 130.267 159.866 127.894L162.994 112.145C163.426 109.772 165.799 108.154 168.172 108.585C170.545 109.017 172.163 111.39 171.732 113.763L168.604 129.62C168.172 131.993 165.799 133.611 163.426 133.072ZM167.741 110.743C166.446 110.527 165.26 111.282 165.044 112.577L161.916 128.326C161.7 129.62 162.455 130.807 163.749 131.022C165.044 131.238 166.23 130.483 166.446 129.188L169.574 113.439C169.898 112.145 169.035 110.958 167.741 110.743Z" fill="white"/>
<path d="M162.994 237.705C154.688 237.921 144.764 235.763 137.752 232.743C130.202 229.291 127.613 220.662 130.957 215.7C134.301 210.846 140.665 210.09 145.843 212.464C152.315 215.484 155.982 216.131 163.102 215.808C168.819 215.592 174.428 218.612 175.723 224.437C177.017 230.37 171.3 237.381 162.994 237.705Z" fill="url(#paint7_linear)"/>
<path d="M185.648 202.54C184.57 207.934 188.129 213.219 193.523 214.19C198.916 215.269 204.202 211.709 205.173 206.316C206.144 200.922 202.692 195.637 197.298 194.666C191.905 193.587 186.727 197.039 185.648 202.54Z" fill="#BABDF7"/>
<path d="M110.572 187.76C109.494 193.154 113.053 198.44 118.447 199.41C123.84 200.489 129.126 196.929 130.097 191.536C131.175 186.142 127.616 180.857 122.222 179.886C116.829 178.915 111.651 182.367 110.572 187.76Z" fill="#BABDF7"/>
<path d="M120.926 198.225C119.523 194.342 119.631 189.919 121.681 186.359C125.672 179.132 134.301 174.925 143.686 176.759L178.636 183.555C188.128 185.388 194.385 192.508 195.464 200.706C196.003 204.805 194.493 208.904 191.688 212.032C170.33 235.224 132.036 227.673 120.926 198.225Z" fill="url(#paint8_linear)"/>
<path d="M154.689 213.218C167.525 215.699 175.076 208.904 175.292 203.402C175.4 200.058 172.487 197.254 167.202 196.391C163.858 195.851 160.73 196.499 158.033 195.959C155.336 195.42 152.639 193.586 149.403 192.831C144.226 191.644 140.45 193.047 139.264 196.175C137.43 201.568 141.96 210.737 154.689 213.218Z" fill="url(#paint9_linear)"/>
<path d="M82.6564 246.052C82.3328 245.621 81.7935 245.513 81.362 245.729L70.8986 251.446L64.3186 245.836C63.8871 245.513 63.3477 245.513 62.9163 245.836L50.8348 257.918C50.4034 258.349 50.4034 258.997 50.8348 259.32C51.1584 259.644 51.5899 259.752 52.0214 259.536L62.4848 253.819L69.0648 259.428C69.4963 259.752 70.0357 259.752 70.4672 259.428L82.5486 247.347C82.9801 246.915 82.9801 246.376 82.6564 246.052Z" fill="#FAFAFA"/>
<path d="M125.912 26.3226C126.236 26.5383 127.099 27.1855 128.609 28.1564C130.119 29.1272 131.198 29.9901 131.953 30.5295C132.061 30.6374 132.276 30.7452 132.492 30.961C132.816 31.1767 133.032 31.2846 133.139 31.5003C133.355 31.6082 133.571 31.7161 133.787 31.9318C134.002 32.0397 134.326 32.2554 134.542 32.2554C134.757 32.3633 134.973 32.3633 135.189 32.3633C135.405 32.3633 135.62 32.3633 135.836 32.2554C136.052 32.1475 136.268 32.0397 136.591 31.9318C136.807 31.8239 137.131 31.6082 137.238 31.5003C137.454 31.3925 137.67 31.1767 137.886 30.961C138.209 30.7452 138.317 30.6374 138.425 30.5295C139.18 29.9901 141.23 28.5878 144.466 26.3226C145.113 25.8911 145.652 25.3517 146.084 24.7045C146.515 24.0573 146.731 23.4101 146.731 22.7629C146.731 22.2235 146.515 21.6842 146.084 21.2527C145.652 20.8212 145.221 20.6055 144.574 20.6055H125.481C124.833 20.6055 124.294 20.8212 123.971 21.2527C123.647 21.6842 123.431 22.2235 123.431 22.9786C123.431 23.518 123.647 24.1652 124.186 24.7045C124.941 25.4596 125.373 25.999 125.912 26.3226Z" fill="white"/>
<path d="M145.653 27.7247C142.848 29.6664 140.691 31.1765 139.181 32.1474C138.641 32.471 138.318 32.7946 137.994 33.0103C137.671 33.2261 137.239 33.4418 136.808 33.6575C136.268 33.8733 135.837 33.9811 135.405 33.9811C134.974 33.9811 134.542 33.8733 134.003 33.6575C133.464 33.4418 133.032 33.2261 132.816 33.0103C132.493 32.7946 132.061 32.471 131.63 32.1474C130.443 31.2844 128.286 29.7742 125.158 27.7247C124.618 27.4011 124.187 26.9696 123.863 26.646V36.8936C123.863 37.433 124.079 37.9723 124.51 38.4038C124.942 38.8353 125.373 39.051 126.021 39.051H145.114C145.653 39.051 146.192 38.8353 146.624 38.4038C147.055 37.9723 147.271 37.5409 147.271 36.8936V26.646C146.516 26.9696 146.084 27.4011 145.653 27.7247Z" fill="white"/>
<path d="M266.035 59.978C258.268 59.978 251.904 65.9109 251.904 73.3539C251.904 75.9428 252.659 78.4238 254.169 80.5812C253.845 83.8173 253.198 86.1904 252.12 87.377C252.012 87.4848 251.904 87.7006 252.012 87.9163C252.12 88.1321 252.227 88.2399 252.443 88.2399C252.659 88.2399 257.082 87.5927 260.318 85.6511C262.151 86.4062 264.093 86.8376 266.035 86.8376C273.801 86.8376 280.166 80.9048 280.166 73.4618C280.166 66.0187 273.801 59.978 266.035 59.978ZM271.536 67.5289C272.615 67.5289 273.478 68.3919 273.478 69.4706C273.478 70.5493 272.615 71.4122 271.536 71.4122C270.457 71.4122 269.594 70.5493 269.594 69.4706C269.594 68.3919 270.457 67.5289 271.536 67.5289ZM260.426 67.5289C261.504 67.5289 262.367 68.3919 262.367 69.4706C262.367 70.5493 261.504 71.4122 260.426 71.4122C259.347 71.4122 258.484 70.5493 258.484 69.4706C258.484 68.3919 259.347 67.5289 260.426 67.5289ZM266.035 81.552C262.583 81.552 259.67 79.6103 258.16 76.6979H266.682H273.801C272.399 79.6103 269.487 81.552 266.035 81.552Z" fill="white"/>
<path d="M289.875 232.03C305.96 232.03 319 218.99 319 202.905C319 186.82 305.96 173.78 289.875 173.78C273.79 173.78 260.75 186.82 260.75 202.905C260.75 218.99 273.79 232.03 289.875 232.03Z" fill="#6FE36D"/>
<path d="M273.317 219.82L275.7 211.065C274.211 208.504 273.437 205.585 273.437 202.607C273.437 193.257 281.06 185.692 290.352 185.692C294.878 185.692 299.107 187.479 302.323 190.636C305.539 193.852 307.267 198.081 307.267 202.607C307.267 211.958 299.643 219.522 290.352 219.522C287.493 219.522 284.753 218.808 282.251 217.438L273.317 219.82ZM282.728 214.4L283.264 214.698C285.408 216.008 287.91 216.664 290.411 216.664C298.154 216.664 304.467 210.35 304.467 202.607C304.467 198.855 302.978 195.341 300.358 192.661C297.677 189.981 294.163 188.551 290.411 188.551C282.668 188.551 276.355 194.865 276.355 202.607C276.355 205.288 277.07 207.849 278.499 210.112L278.856 210.648L277.427 215.83L282.728 214.4Z" fill="url(#paint10_linear)"/>
<path fill-rule="evenodd" clip-rule="evenodd" d="M286.183 195.519C285.886 194.805 285.528 194.805 285.23 194.805C284.992 194.805 284.694 194.805 284.397 194.805C284.099 194.805 283.682 194.924 283.265 195.341C282.848 195.758 281.776 196.77 281.776 198.855C281.776 200.939 283.265 202.964 283.503 203.203C283.741 203.5 286.422 207.908 290.71 209.576C294.283 211.005 294.998 210.707 295.772 210.648C296.547 210.588 298.274 209.635 298.631 208.623C298.989 207.61 298.989 206.776 298.87 206.598C298.751 206.419 298.453 206.3 298.036 206.121C297.619 205.883 295.534 204.87 295.117 204.751C294.7 204.632 294.462 204.513 294.164 204.989C293.867 205.406 293.092 206.359 292.854 206.657C292.616 206.955 292.378 206.955 291.961 206.776C291.544 206.538 290.174 206.121 288.566 204.692C287.315 203.56 286.481 202.19 286.243 201.773C286.005 201.356 286.243 201.118 286.422 200.939C286.6 200.761 286.838 200.463 287.077 200.225C287.315 199.986 287.375 199.808 287.494 199.51C287.613 199.212 287.553 198.974 287.434 198.795C287.375 198.438 286.541 196.353 286.183 195.519Z" fill="white"/>
<defs>
<linearGradient id="paint0_linear" x1="34.8067" y1="66.4569" x2="175.329" y2="91.4784" gradientUnits="userSpaceOnUse">
<stop stop-color="#FF0068"/>
<stop offset="1" stop-color="#8905C9"/>
</linearGradient>
<linearGradient id="paint1_linear" x1="27.4202" y1="243.964" x2="178.557" y2="270.875" gradientUnits="userSpaceOnUse">
<stop stop-color="#FF0068"/>
<stop offset="1" stop-color="#8905C9"/>
</linearGradient>
<linearGradient id="paint2_linear" x1="221.766" y1="226.92" x2="285.571" y2="238.281" gradientUnits="userSpaceOnUse">
<stop stop-color="#FF0068"/>
<stop offset="1" stop-color="#8905C9"/>
</linearGradient>
<linearGradient id="paint3_linear" x1="226.951" y1="84.3599" x2="299.948" y2="97.3577" gradientUnits="userSpaceOnUse">
<stop stop-color="#FF0068"/>
<stop offset="1" stop-color="#8905C9"/>
</linearGradient>
<linearGradient id="paint4_linear" x1="150.899" y1="232.703" x2="147.346" y2="250.851" gradientUnits="userSpaceOnUse">
<stop offset="0.00510817" stop-color="#E9E9F7"/>
<stop offset="0.9989" stop-color="#C7CAFF"/>
</linearGradient>
<radialGradient id="paint5_radial" cx="0" cy="0" r="1" gradientUnits="userSpaceOnUse" gradientTransform="translate(156.355 69.7176) rotate(11.0751) scale(93.3918)">
<stop stop-color="#8805C8"/>
<stop offset="0.6641" stop-color="#5906EF"/>
<stop offset="1" stop-color="#4707FF"/>
</radialGradient>
<linearGradient id="paint6_linear" x1="171.771" y1="126.067" x2="163.268" y2="169.504" gradientUnits="userSpaceOnUse">
<stop offset="0.00510817" stop-color="#E9E9F7"/>
<stop offset="0.9989" stop-color="#C7CAFF"/>
</linearGradient>
<linearGradient id="paint7_linear" x1="153.486" y1="219.473" x2="150.061" y2="236.971" gradientUnits="userSpaceOnUse">
<stop offset="0.00510817" stop-color="#E9E9F7"/>
<stop offset="0.9989" stop-color="#C7CAFF"/>
</linearGradient>
<linearGradient id="paint8_linear" x1="160.407" y1="184.122" x2="152.96" y2="222.168" gradientUnits="userSpaceOnUse">
<stop offset="0.00510817" stop-color="#E9E9F7"/>
<stop offset="0.9989" stop-color="#C7CAFF"/>
</linearGradient>
<linearGradient id="paint9_linear" x1="137.964" y1="200.373" x2="179.005" y2="208.406" gradientUnits="userSpaceOnUse">
<stop stop-color="#FF0068"/>
<stop offset="0.5117" stop-color="#9E04B6"/>
<stop offset="1" stop-color="#7306DA"/>
</linearGradient>
<linearGradient id="paint10_linear" x1="290.339" y1="219.832" x2="290.339" y2="185.693" gradientUnits="userSpaceOnUse">
<stop stop-color="#F9F9F9"/>
<stop offset="1" stop-color="white"/>
</linearGradient>
</defs>
</svg>
