<svg width="361" height="299" viewBox="0 0 361 299" fill="none" xmlns="http://www.w3.org/2000/svg">
<path fill-rule="evenodd" clip-rule="evenodd" d="M173.15 50.1191C173.246 50.1188 173.343 50.1187 173.439 50.1187C173.536 50.1187 173.632 50.1188 173.729 50.1191C173.829 50.1194 173.925 50.1329 174.017 50.1579C174.11 50.1341 174.207 50.1219 174.307 50.1229C176.434 50.1436 178.543 50.2404 180.631 50.4108C181.243 50.4607 181.699 50.9974 181.649 51.6095C181.599 52.2215 181.062 52.6773 180.45 52.6273C178.415 52.4613 176.359 52.3669 174.285 52.3467C174.188 52.3457 174.093 52.3323 174.003 52.3079C173.913 52.3311 173.819 52.3434 173.721 52.343C173.627 52.3427 173.533 52.3426 173.439 52.3426C173.345 52.3426 173.251 52.3427 173.157 52.343C172.543 52.345 172.044 51.8488 172.042 51.2347C172.04 50.6206 172.536 50.1211 173.15 50.1191ZM168.581 51.3581C168.623 51.9708 168.16 52.5015 167.548 52.5434C167.361 52.5562 167.174 52.5696 166.988 52.5836C166.375 52.6295 165.841 52.1703 165.796 51.5579C165.75 50.9455 166.209 50.4118 166.821 50.3659C167.013 50.3515 167.204 50.3378 167.396 50.3247C168.008 50.2828 168.539 50.7455 168.581 51.3581ZM162.358 51.9293C162.444 52.5373 162.021 53.1 161.413 53.1861C159.365 53.476 157.34 53.8389 155.341 54.2721C155.246 54.2926 155.152 54.3004 155.059 54.2966C154.977 54.339 154.887 54.3717 154.793 54.3929C154.61 54.4337 154.428 54.4752 154.245 54.5172C153.647 54.6553 153.05 54.2821 152.912 53.6837C152.774 53.0853 153.147 52.4882 153.745 52.3502C153.932 52.3071 154.12 52.2645 154.307 52.2226C154.404 52.2008 154.501 52.1926 154.597 52.1965C154.681 52.153 154.773 52.1197 154.87 52.0986C156.921 51.654 158.999 51.2816 161.102 50.9841C161.71 50.8981 162.272 51.3212 162.358 51.9293ZM185.082 52.0033C185.172 51.3958 185.738 50.9763 186.345 51.0664C186.535 51.0945 186.724 51.1232 186.913 51.1526C187.52 51.2466 187.936 51.8149 187.842 52.4217C187.748 53.0286 187.18 53.4443 186.573 53.3503C186.388 53.3217 186.204 53.2937 186.019 53.2663C185.411 53.1762 184.992 52.6108 185.082 52.0033ZM191.244 53.065C191.378 52.4657 191.972 52.0886 192.572 52.2226C192.759 52.2646 192.946 52.3071 193.133 52.3502C193.23 52.3726 193.321 52.407 193.405 52.4515C193.5 52.4488 193.597 52.4584 193.694 52.4814C195.756 52.9717 197.79 53.5352 199.793 54.1691C200.379 54.3543 200.703 54.9792 200.518 55.5647C200.333 56.1502 199.708 56.4746 199.122 56.2893C197.171 55.6718 195.189 55.1228 193.179 54.6451C193.085 54.6227 192.996 54.5889 192.915 54.5455C192.822 54.5481 192.728 54.539 192.633 54.5172C192.451 54.4752 192.269 54.4338 192.086 54.3929C191.487 54.2588 191.11 53.6643 191.244 53.065ZM149.571 54.5723C149.748 55.1602 149.415 55.7807 148.828 55.9582C148.649 56.0121 148.471 56.0666 148.292 56.1217C147.706 56.3031 147.083 55.9745 146.902 55.3877C146.72 54.801 147.049 54.1783 147.636 53.997C147.818 53.9404 148.001 53.8845 148.185 53.8292C148.773 53.6517 149.393 53.9844 149.571 54.5723ZM143.631 56.5194C143.851 57.0928 143.564 57.7359 142.991 57.9559C141.065 58.6949 139.173 59.502 137.317 60.3743C137.229 60.4155 137.139 60.4442 137.048 60.4613C136.978 60.5208 136.898 60.5725 136.811 60.6143C136.642 60.6949 136.474 60.7762 136.306 60.8579C135.753 61.1265 135.088 60.8966 134.819 60.3443C134.551 59.792 134.781 59.1266 135.333 58.858C135.505 58.7741 135.678 58.6907 135.852 58.6079C135.941 58.565 136.034 58.5353 136.127 58.5178C136.199 58.4567 136.281 58.4039 136.371 58.3616C138.275 57.4664 140.218 56.6381 142.194 55.8796C142.768 55.6596 143.411 55.946 143.631 56.5194ZM203.781 56.718C204.004 56.1461 204.649 55.8639 205.221 56.0877C205.4 56.1577 205.579 56.2282 205.757 56.2993C206.327 56.5269 206.605 57.1738 206.377 57.7442C206.15 58.3146 205.503 58.5924 204.933 58.3649C204.759 58.2956 204.585 58.2269 204.411 58.1587C203.839 57.9349 203.557 57.2899 203.781 56.718ZM209.544 59.1314C209.809 58.5774 210.473 58.343 211.027 58.608C211.2 58.6908 211.373 58.7741 211.546 58.8581C211.635 58.9016 211.716 58.9557 211.788 59.0179C211.882 59.0366 211.974 59.0677 212.063 59.1119C213.96 60.0498 215.817 61.0546 217.632 62.1232C218.161 62.4348 218.338 63.1164 218.026 63.6456C217.714 64.1748 217.033 64.3513 216.504 64.0397C214.735 62.9983 212.925 62.0192 211.077 61.1053C210.99 61.0623 210.911 61.0094 210.841 60.9487C210.75 60.9304 210.66 60.9004 210.573 60.858C210.405 60.7762 210.237 60.695 210.068 60.6143C209.514 60.3494 209.279 59.6855 209.544 59.1314ZM131.759 61.9599C132.064 62.4932 131.879 63.1724 131.345 63.477C131.183 63.5697 131.021 63.663 130.859 63.7567C130.328 64.0648 129.647 63.8839 129.339 63.3526C129.031 62.8214 129.212 62.141 129.744 61.8329C129.91 61.7366 130.076 61.6409 130.242 61.5458C130.776 61.2412 131.455 61.4266 131.759 61.9599ZM126.407 65.1852C126.749 65.695 126.614 66.3859 126.104 66.7283C124.394 67.8767 122.729 69.0855 121.11 70.3518C121.034 70.4115 120.952 70.4597 120.867 70.4966C120.811 70.5706 120.745 70.6387 120.669 70.6989C120.523 70.8151 120.377 70.9318 120.231 71.0489C119.752 71.4336 119.052 71.3575 118.668 70.8788C118.283 70.4002 118.359 69.7003 118.838 69.3155C118.987 69.1953 119.137 69.0756 119.288 68.9564C119.365 68.8946 119.449 68.8449 119.536 68.8071C119.593 68.7313 119.661 68.6616 119.74 68.6003C121.4 67.301 123.109 66.0606 124.864 64.8822C125.373 64.5398 126.064 64.6754 126.407 65.1852ZM220.947 65.4977C221.293 64.9902 221.984 64.8591 222.492 65.2049C222.651 65.313 222.809 65.4216 222.967 65.5307C223.472 65.8798 223.599 66.5724 223.249 67.0777C222.9 67.5829 222.208 67.7094 221.702 67.3603C221.549 67.254 221.394 67.1481 221.24 67.0427C220.732 66.697 220.601 66.0052 220.947 65.4977ZM226.029 69.1369C226.411 68.6557 227.11 68.5749 227.591 68.9565C227.742 69.0758 227.891 69.1954 228.041 69.3156C228.118 69.3779 228.185 69.4485 228.242 69.5251C228.328 69.564 228.411 69.6148 228.488 69.6776C230.125 71.0113 231.713 72.4033 233.248 73.8504C233.695 74.2716 233.716 74.9754 233.295 75.4223C232.874 75.8691 232.17 75.8899 231.723 75.4687C230.227 74.0583 228.679 72.7016 227.084 71.4018C227.008 71.3406 226.943 71.2716 226.889 71.1969C226.804 71.1589 226.723 71.1097 226.648 71.049C226.502 70.9319 226.356 70.8152 226.209 70.699C225.728 70.3174 225.647 69.618 226.029 69.1369ZM116.044 73.1332C116.46 73.5856 116.43 74.289 115.977 74.7044C115.84 74.8308 115.702 74.9578 115.565 75.0851C115.116 75.5034 114.412 75.478 113.994 75.0284C113.575 74.5788 113.601 73.8752 114.051 73.4569C114.191 73.3262 114.332 73.1959 114.473 73.0662C114.926 72.6508 115.629 72.6809 116.044 73.1332ZM111.54 77.4663C111.987 77.8875 112.008 78.5913 111.586 79.0382C110.176 80.5344 108.819 82.0819 107.519 83.6774C107.458 83.7526 107.389 83.8176 107.315 83.8724C107.277 83.9568 107.227 84.0379 107.167 84.1134C107.049 84.2591 106.933 84.4052 106.817 84.5517C106.435 85.0329 105.736 85.1136 105.254 84.732C104.773 84.3504 104.693 83.651 105.074 83.1699C105.193 83.0195 105.313 82.8696 105.433 82.7201C105.496 82.6426 105.566 82.5756 105.643 82.5195C105.682 82.4329 105.732 82.3499 105.795 82.2728C107.129 80.6357 108.521 79.0479 109.968 77.5127C110.389 77.0658 111.093 77.045 111.54 77.4663ZM235.733 77.8762C236.182 77.4579 236.886 77.4833 237.304 77.933C237.435 78.0735 237.565 78.2144 237.695 78.3557C238.11 78.8081 238.08 79.5115 237.628 79.9268C237.175 80.3422 236.472 80.3122 236.057 79.8598C235.93 79.722 235.803 79.5847 235.676 79.4477C235.258 78.9981 235.283 78.2945 235.733 77.8762ZM239.882 82.5502C240.361 82.1654 241.061 82.2415 241.445 82.7202C241.566 82.8697 241.685 83.0196 241.805 83.1699C241.866 83.2479 241.916 83.3316 241.954 83.4187C242.03 83.4759 242.099 83.5438 242.161 83.6221C243.46 85.2828 244.7 86.9918 245.879 88.7461C246.221 89.2559 246.086 89.9467 245.576 90.2892C245.066 90.6316 244.375 90.4959 244.033 89.9861C242.884 88.2766 241.675 86.611 240.409 84.9925C240.349 84.9162 240.301 84.8345 240.264 84.7495C240.19 84.6937 240.122 84.6278 240.062 84.5518C239.946 84.4053 239.829 84.2592 239.712 84.1135C239.327 83.6348 239.404 82.9349 239.882 82.5502ZM103.195 87.5116C103.7 87.8608 103.827 88.5534 103.478 89.0586C103.372 89.2125 103.266 89.3668 103.16 89.5214C102.815 90.0289 102.123 90.16 101.615 89.8143C101.108 89.4685 100.977 88.7767 101.322 88.2692C101.431 88.1105 101.539 87.9522 101.648 87.7943C101.997 87.2891 102.69 87.1625 103.195 87.5116ZM99.7632 92.735C100.292 93.0466 100.469 93.7282 100.157 94.2574C99.1159 96.0261 98.1368 97.8359 97.2229 99.6837C97.1799 99.7707 97.127 99.8496 97.0663 99.9197C97.048 100.011 97.0181 100.101 96.9756 100.188C96.8938 100.356 96.8126 100.525 96.7319 100.693C96.467 101.247 95.8031 101.482 95.2491 101.217C94.695 100.952 94.4607 100.288 94.7256 99.7339C94.8084 99.5607 94.8918 99.3878 94.9757 99.2153C95.0192 99.1257 95.0733 99.0446 95.1355 98.9727C95.1542 98.8795 95.1853 98.7871 95.2295 98.6978C96.1674 96.8015 97.1722 94.9442 98.2408 93.1291C98.5524 92.5999 99.234 92.4234 99.7632 92.735ZM247.408 93.2218C247.94 92.9138 248.62 93.0947 248.928 93.6259C249.024 93.7919 249.12 93.9582 249.215 94.1249C249.52 94.6581 249.334 95.3373 248.801 95.6419C248.268 95.9464 247.589 95.761 247.284 95.2277C247.191 95.0654 247.098 94.9033 247.004 94.7416C246.696 94.2103 246.877 93.5299 247.408 93.2218ZM250.417 98.7017C250.969 98.4331 251.634 98.6631 251.903 99.2153C251.987 99.3879 252.07 99.5607 252.153 99.7339C252.196 99.8236 252.226 99.9161 252.243 100.009C252.304 100.082 252.357 100.163 252.399 100.253C253.295 102.158 254.123 104.1 254.881 106.077C255.101 106.65 254.815 107.293 254.242 107.513C253.668 107.733 253.025 107.447 252.805 106.873C252.066 104.947 251.259 103.055 250.387 101.199C250.346 101.112 250.317 101.022 250.3 100.931C250.24 100.86 250.189 100.781 250.147 100.693C250.066 100.525 249.985 100.356 249.903 100.188C249.635 99.6357 249.864 98.9703 250.417 98.7017ZM93.8618 104.384C94.4322 104.611 94.7101 105.258 94.4825 105.829C94.4132 106.002 94.3445 106.176 94.2763 106.35C94.0525 106.922 93.4075 107.204 92.8356 106.98C92.2637 106.757 91.9816 106.112 92.2054 105.54C92.2753 105.361 92.3458 105.183 92.4169 105.004C92.6445 104.434 93.2914 104.156 93.8618 104.384ZM91.6823 110.243C92.2678 110.429 92.5923 111.053 92.407 111.639C91.7894 113.59 91.2404 115.572 90.7627 117.582C90.7403 117.676 90.7065 117.765 90.6632 117.846C90.6657 117.939 90.6567 118.033 90.6349 118.128C90.5929 118.31 90.5514 118.492 90.5106 118.675C90.3765 119.274 89.782 119.651 89.1827 119.517C88.5834 119.383 88.2062 118.789 88.3403 118.189C88.3822 118.002 88.4247 117.815 88.4679 117.628C88.4902 117.531 88.5246 117.44 88.5691 117.356C88.5665 117.261 88.5761 117.164 88.5991 117.068C89.0894 115.005 89.6529 112.971 90.2867 110.968C90.472 110.382 91.0968 110.058 91.6823 110.243ZM255.373 110.784C255.96 110.603 256.583 110.931 256.764 111.518C256.821 111.701 256.877 111.884 256.932 112.067C257.109 112.655 256.777 113.276 256.189 113.453C255.601 113.631 254.98 113.298 254.803 112.71C254.749 112.531 254.694 112.353 254.639 112.175C254.458 111.588 254.787 110.965 255.373 110.784ZM257.077 116.794C257.676 116.656 258.273 117.029 258.411 117.628C258.454 117.815 258.497 118.002 258.538 118.189C258.56 118.287 258.569 118.384 258.565 118.479C258.608 118.563 258.641 118.655 258.662 118.752C259.107 120.804 259.479 122.882 259.777 124.984C259.863 125.592 259.44 126.155 258.832 126.241C258.224 126.327 257.661 125.904 257.575 125.296C257.285 123.247 256.922 121.222 256.489 119.224C256.468 119.129 256.461 119.034 256.464 118.941C256.422 118.859 256.389 118.77 256.368 118.675C256.327 118.492 256.286 118.31 256.244 118.128C256.106 117.529 256.479 116.932 257.077 116.794ZM88.5394 122.919C89.1463 123.013 89.562 123.581 89.4679 124.188C89.4393 124.373 89.4113 124.557 89.3839 124.742C89.2939 125.35 88.7284 125.769 88.1209 125.679C87.5135 125.589 87.094 125.024 87.1841 124.416C87.2122 124.226 87.2409 124.037 87.2702 123.848C87.3643 123.241 87.9325 122.825 88.5394 122.919ZM87.7271 129.112C88.3392 129.162 88.7949 129.699 88.745 130.311C88.579 132.346 88.4846 134.402 88.4644 136.476C88.4634 136.574 88.45 136.668 88.4256 136.758C88.4488 136.848 88.461 136.942 88.4607 137.04C88.4604 137.134 88.4603 137.228 88.4603 137.322C88.4603 137.416 88.4604 137.51 88.4607 137.604C88.4627 138.218 87.9665 138.717 87.3524 138.719C86.7382 138.721 86.2388 138.225 86.2368 137.611C86.2365 137.515 86.2363 137.418 86.2363 137.322C86.2363 137.225 86.2365 137.129 86.2368 137.032C86.2371 136.933 86.2506 136.836 86.2756 136.744C86.2518 136.651 86.2396 136.554 86.2405 136.455C86.2613 134.327 86.3581 132.218 86.5284 130.13C86.5784 129.518 87.115 129.062 87.7271 129.112ZM259.203 129.678C259.816 129.632 260.349 130.091 260.395 130.704C260.402 130.8 260.41 130.896 260.416 130.992C260.423 131.087 260.43 131.183 260.436 131.278C260.478 131.891 260.016 132.421 259.403 132.463C258.79 132.505 258.26 132.043 258.218 131.43C258.205 131.243 258.192 131.056 258.178 130.87C258.132 130.257 258.591 129.724 259.203 129.678ZM259.526 135.924C260.141 135.922 260.64 136.418 260.642 137.032C260.642 137.129 260.642 137.225 260.642 137.322C260.642 137.411 260.642 137.499 260.642 137.588C260.642 137.68 260.63 137.769 260.609 137.854C260.629 137.94 260.64 138.029 260.639 138.12C260.621 140.083 260.539 142.03 260.393 143.96C260.347 144.572 259.813 145.031 259.2 144.985C258.588 144.938 258.129 144.405 258.175 143.792C258.317 141.911 258.398 140.013 258.415 138.1C258.416 138.011 258.427 137.924 258.448 137.841C258.428 137.758 258.418 137.671 258.418 137.581C258.418 137.495 258.419 137.408 258.419 137.322C258.419 137.228 258.418 137.134 258.418 137.04C258.416 136.426 258.912 135.926 259.526 135.924ZM87.4758 142.18C88.0885 142.138 88.6192 142.601 88.6611 143.214C88.6739 143.4 88.6872 143.587 88.7012 143.774C88.7472 144.386 88.2879 144.92 87.6755 144.966C87.0631 145.012 86.5295 144.552 86.4835 143.94C86.4692 143.749 86.4555 143.557 86.4423 143.365C86.4004 142.753 86.8631 142.222 87.4758 142.18ZM258.882 147.991C259.49 148.075 259.916 148.635 259.832 149.244C259.808 149.42 259.784 149.595 259.758 149.771C259.671 150.379 259.108 150.801 258.5 150.714C257.892 150.627 257.47 150.063 257.557 149.456C257.582 149.285 257.605 149.113 257.629 148.942C257.712 148.333 258.273 147.908 258.882 147.991ZM88.047 148.403C88.655 148.317 89.2177 148.74 89.3038 149.348C89.5937 151.396 89.9566 153.421 90.3898 155.42C90.4103 155.515 90.4181 155.609 90.4143 155.702C90.4567 155.785 90.4894 155.874 90.5106 155.968C90.5514 156.151 90.5929 156.334 90.6349 156.516C90.7729 157.114 90.3997 157.711 89.8013 157.849C89.2029 157.987 88.6059 157.614 88.4679 157.016C88.4247 156.829 88.3822 156.641 88.3403 156.454C88.3185 156.357 88.3102 156.26 88.3142 156.165C88.2707 156.08 88.2374 155.988 88.2163 155.891C87.7717 153.84 87.3993 151.762 87.1018 149.659C87.0157 149.051 87.4389 148.489 88.047 148.403ZM257.98 153.693C258.582 153.817 258.969 154.405 258.844 155.006C258.809 155.18 258.772 155.353 258.736 155.526C258.716 155.616 258.687 155.7 258.649 155.779C258.651 155.867 258.643 155.956 258.623 156.046C258.204 157.958 257.722 159.848 257.18 161.711C257.008 162.301 256.391 162.64 255.801 162.468C255.212 162.297 254.873 161.679 255.045 161.09C255.573 159.274 256.043 157.433 256.451 155.57C256.47 155.482 256.499 155.4 256.536 155.323C256.534 155.238 256.542 155.151 256.56 155.064C256.596 154.895 256.632 154.726 256.666 154.557C256.79 153.956 257.379 153.569 257.98 153.693ZM90.69 161.19C91.2779 161.013 91.8984 161.346 92.0759 161.934C92.1298 162.112 92.1843 162.291 92.2394 162.469C92.4207 163.055 92.0921 163.678 91.5054 163.859C90.9187 164.041 90.296 163.712 90.1146 163.126C90.0581 162.943 90.0022 162.76 89.9468 162.576C89.7693 161.988 90.1021 161.368 90.69 161.19ZM254.868 165.344C255.446 165.551 255.746 166.188 255.539 166.766C255.496 166.886 255.452 167.006 255.409 167.126C255.392 167.172 255.374 167.219 255.357 167.266C255.146 167.843 254.508 168.139 253.931 167.928C253.354 167.717 253.058 167.078 253.269 166.502C253.328 166.34 253.387 166.177 253.446 166.014C253.653 165.436 254.29 165.136 254.868 165.344ZM92.6371 167.13C93.2105 166.91 93.8536 167.197 94.0736 167.77C94.8126 169.696 95.6197 171.588 96.492 173.444C96.5331 173.532 96.5619 173.622 96.5789 173.713C96.6385 173.783 96.6902 173.863 96.7319 173.95C96.8126 174.119 96.8938 174.287 96.9756 174.455C97.2442 175.008 97.0142 175.673 96.462 175.942C95.9097 176.21 95.2443 175.98 94.9757 175.428C94.8918 175.256 94.8084 175.083 94.7256 174.91C94.6827 174.82 94.6529 174.727 94.6354 174.634C94.5743 174.562 94.5216 174.48 94.4793 174.39C93.5841 172.486 92.7557 170.544 91.9972 168.567C91.7773 167.993 92.0637 167.35 92.6371 167.13ZM252.805 170.735C253.368 170.981 253.625 171.636 253.379 172.199C253.308 172.361 253.236 172.523 253.164 172.685C253.127 172.769 253.081 172.846 253.027 172.915C253.011 173.001 252.985 173.087 252.947 173.17C252.142 174.951 251.28 176.699 250.362 178.414C250.072 178.955 249.398 179.159 248.857 178.869C248.315 178.579 248.111 177.905 248.401 177.364C249.296 175.693 250.136 173.989 250.92 172.254C250.957 172.173 251.002 172.098 251.055 172.031C251.07 171.947 251.096 171.863 251.132 171.782C251.202 171.624 251.272 171.466 251.341 171.308C251.587 170.745 252.242 170.489 252.805 170.735ZM98.0776 179.002C98.6109 178.697 99.2901 178.882 99.5946 179.416C99.6874 179.578 99.7806 179.74 99.8744 179.902C100.182 180.433 100.002 181.114 99.4703 181.422C98.939 181.73 98.2586 181.549 97.9506 181.018C97.8543 180.852 97.7586 180.685 97.6634 180.519C97.3589 179.985 97.5443 179.306 98.0776 179.002ZM247.349 181.49C247.871 181.812 248.034 182.497 247.711 183.02C247.662 183.1 247.613 183.179 247.563 183.259C247.519 183.33 247.475 183.401 247.431 183.471C247.105 183.992 246.419 184.15 245.898 183.825C245.378 183.499 245.219 182.813 245.545 182.292C245.637 182.146 245.728 181.999 245.818 181.852C246.141 181.33 246.826 181.167 247.349 181.49ZM101.303 184.354C101.813 184.012 102.504 184.148 102.846 184.657C103.994 186.367 105.203 188.033 106.469 189.651C106.529 189.727 106.577 189.809 106.614 189.894C106.688 189.95 106.756 190.016 106.817 190.092C106.933 190.238 107.049 190.384 107.167 190.53C107.551 191.009 107.475 191.709 106.997 192.093C106.518 192.478 105.818 192.402 105.433 191.923C105.313 191.774 105.193 191.624 105.074 191.474C105.012 191.396 104.963 191.312 104.925 191.225C104.849 191.168 104.779 191.1 104.718 191.021C103.419 189.361 102.178 187.652 101 185.897C100.657 185.388 100.793 184.697 101.303 184.354ZM244.218 186.339C244.718 186.695 244.834 187.39 244.477 187.89C244.375 188.034 244.271 188.178 244.168 188.321C244.114 188.396 244.053 188.461 243.986 188.518C243.953 188.599 243.909 188.677 243.855 188.751C242.703 190.325 241.499 191.859 240.247 193.35C239.852 193.821 239.15 193.882 238.68 193.487C238.21 193.092 238.149 192.39 238.544 191.92C239.765 190.467 240.938 188.972 242.06 187.438C242.113 187.366 242.173 187.302 242.238 187.247C242.27 187.168 242.313 187.091 242.365 187.019C242.466 186.879 242.567 186.739 242.667 186.598C243.024 186.098 243.718 185.982 244.218 186.339ZM109.251 194.717C109.703 194.301 110.407 194.331 110.822 194.784C110.949 194.922 111.075 195.059 111.203 195.196C111.621 195.645 111.596 196.349 111.146 196.767C110.696 197.186 109.993 197.16 109.575 196.711C109.444 196.57 109.314 196.429 109.184 196.288C108.768 195.835 108.799 195.132 109.251 194.717ZM236.666 195.742C237.111 196.165 237.13 196.868 236.707 197.314C236.585 197.442 236.462 197.57 236.34 197.698C235.914 198.141 235.21 198.155 234.767 197.729C234.325 197.304 234.311 196.6 234.736 196.157C234.856 196.033 234.975 195.908 235.094 195.783C235.517 195.337 236.221 195.319 236.666 195.742ZM113.584 199.221C114.005 198.774 114.709 198.754 115.156 199.175C116.652 200.585 118.2 201.942 119.795 203.242C119.87 203.303 119.935 203.372 119.99 203.447C120.074 203.485 120.156 203.534 120.231 203.595C120.377 203.712 120.523 203.828 120.669 203.945C121.151 204.326 121.231 205.025 120.85 205.507C120.468 205.988 119.769 206.069 119.288 205.687C119.137 205.568 118.987 205.448 118.838 205.328C118.76 205.266 118.693 205.195 118.637 205.118C118.551 205.08 118.468 205.029 118.39 204.966C116.753 203.632 115.166 202.24 113.63 200.793C113.184 200.372 113.163 199.668 113.584 199.221ZM232.607 199.845C233.023 200.297 232.994 201 232.543 201.416C232.478 201.476 232.412 201.536 232.347 201.596L232.346 201.597C232.288 201.65 232.229 201.704 232.17 201.757C232.11 201.812 232.045 201.859 231.977 201.898C231.932 201.962 231.878 202.021 231.818 202.076C230.522 203.241 229.191 204.369 227.827 205.457C227.346 205.84 226.647 205.761 226.264 205.281C225.881 204.8 225.96 204.101 226.44 203.718C227.77 202.657 229.067 201.558 230.331 200.422C230.39 200.369 230.453 200.323 230.519 200.285C230.564 200.223 230.616 200.165 230.675 200.111C230.732 200.059 230.789 200.007 230.846 199.955C230.909 199.897 230.973 199.839 231.036 199.781C231.487 199.365 232.191 199.393 232.607 199.845ZM224.291 206.769C224.647 207.269 224.531 207.964 224.031 208.32C223.902 208.412 223.772 208.504 223.643 208.595C223.141 208.949 222.447 208.829 222.093 208.327C221.739 207.825 221.859 207.131 222.361 206.778C222.488 206.689 222.614 206.599 222.74 206.51C223.24 206.153 223.934 206.269 224.291 206.769ZM123.629 207.566C123.978 207.061 124.671 206.934 125.176 207.283C125.33 207.39 125.484 207.495 125.639 207.601C126.147 207.947 126.278 208.638 125.932 209.146C125.586 209.653 124.894 209.784 124.387 209.439C124.228 209.331 124.07 209.222 123.912 209.113C123.407 208.764 123.28 208.071 123.629 207.566ZM220.035 209.696C220.361 210.217 220.204 210.903 219.683 211.229C219.549 211.313 219.415 211.397 219.28 211.481C219.21 211.524 219.138 211.558 219.064 211.584C219.008 211.638 218.944 211.687 218.875 211.73C217.39 212.639 215.875 213.505 214.333 214.326C213.791 214.615 213.118 214.409 212.829 213.867C212.541 213.325 212.746 212.652 213.288 212.363C214.79 211.563 216.266 210.719 217.714 209.833C217.782 209.792 217.852 209.758 217.924 209.733C217.98 209.68 218.041 209.632 218.109 209.59C218.24 209.509 218.371 209.427 218.502 209.345C219.022 209.019 219.709 209.176 220.035 209.696ZM128.853 210.998C129.164 210.469 129.846 210.292 130.375 210.604C132.144 211.645 133.954 212.624 135.801 213.538C135.888 213.581 135.967 213.634 136.037 213.695C136.128 213.713 136.218 213.743 136.306 213.786C136.474 213.867 136.642 213.949 136.811 214.029C137.365 214.294 137.599 214.958 137.334 215.512C137.069 216.066 136.406 216.3 135.852 216.036C135.678 215.953 135.505 215.869 135.333 215.785C135.243 215.742 135.162 215.688 135.09 215.626C134.997 215.607 134.905 215.576 134.815 215.532C132.919 214.594 131.062 213.589 129.247 212.52C128.718 212.209 128.541 211.527 128.853 210.998ZM210.617 214.97C210.875 215.527 210.634 216.188 210.077 216.447C209.933 216.514 209.789 216.58 209.645 216.646C209.086 216.902 208.426 216.656 208.171 216.098C207.915 215.54 208.16 214.88 208.719 214.624C208.859 214.56 209 214.495 209.14 214.43C209.697 214.171 210.358 214.413 210.617 214.97ZM140.501 216.899C140.729 216.329 141.376 216.051 141.946 216.279C142.12 216.348 142.294 216.417 142.468 216.485C143.04 216.709 143.322 217.354 143.098 217.925C142.874 218.497 142.229 218.78 141.657 218.556C141.479 218.486 141.3 218.415 141.122 218.344C140.552 218.117 140.274 217.47 140.501 216.899ZM205.896 217.066C206.121 217.637 205.84 218.283 205.268 218.508C205.121 218.566 204.973 218.623 204.825 218.68C204.749 218.71 204.672 218.73 204.594 218.742C204.529 218.785 204.457 218.822 204.381 218.851C202.756 219.47 201.108 220.041 199.438 220.564C198.852 220.748 198.228 220.421 198.044 219.835C197.861 219.249 198.187 218.625 198.773 218.442C200.4 217.933 202.006 217.376 203.59 216.773C203.664 216.744 203.739 216.724 203.815 216.713C203.879 216.671 203.948 216.635 204.022 216.606C204.166 216.551 204.31 216.495 204.454 216.438C205.026 216.213 205.671 216.494 205.896 217.066ZM146.361 219.079C146.546 218.493 147.171 218.169 147.757 218.354C149.708 218.972 151.69 219.521 153.7 219.998C153.794 220.021 153.882 220.055 153.964 220.098C154.057 220.095 154.151 220.104 154.245 220.126C154.428 220.168 154.61 220.21 154.793 220.251C155.392 220.385 155.769 220.979 155.635 221.578C155.501 222.178 154.906 222.555 154.307 222.421C154.12 222.379 153.932 222.336 153.745 222.293C153.649 222.271 153.558 222.237 153.474 222.192C153.379 222.195 153.282 222.185 153.185 222.162C151.123 221.672 149.088 221.108 147.086 220.474C146.5 220.289 146.176 219.664 146.361 219.079ZM195.666 220.509C195.817 221.104 195.457 221.709 194.862 221.86C194.708 221.899 194.554 221.938 194.4 221.976C193.804 222.124 193.201 221.76 193.053 221.164C192.905 220.568 193.269 219.965 193.865 219.817C194.015 219.78 194.165 219.742 194.315 219.704C194.91 219.553 195.515 219.914 195.666 220.509ZM190.638 221.693C190.753 222.296 190.357 222.878 189.754 222.993C189.598 223.022 189.442 223.051 189.286 223.08C189.206 223.095 189.126 223.101 189.048 223.098C188.975 223.128 188.899 223.151 188.818 223.165C187.11 223.471 185.384 223.726 183.643 223.931C183.033 224.002 182.48 223.566 182.409 222.956C182.337 222.346 182.774 221.793 183.384 221.722C185.08 221.523 186.762 221.274 188.427 220.976C188.505 220.962 188.583 220.957 188.659 220.959C188.73 220.93 188.805 220.908 188.883 220.893C189.035 220.865 189.186 220.837 189.338 220.808C189.941 220.693 190.523 221.089 190.638 221.693ZM159.037 222.222C159.131 221.615 159.699 221.199 160.306 221.293C160.49 221.322 160.675 221.35 160.86 221.377C161.467 221.467 161.887 222.033 161.797 222.64C161.707 223.248 161.141 223.667 160.534 223.577C160.344 223.549 160.155 223.52 159.965 223.491C159.358 223.397 158.943 222.829 159.037 222.222ZM165.23 223.034C165.28 222.422 165.816 221.966 166.429 222.016C168.464 222.182 170.52 222.277 172.594 222.297C172.691 222.298 172.786 222.311 172.875 222.336C172.965 222.312 173.06 222.3 173.157 222.3C173.251 222.301 173.345 222.301 173.439 222.301C173.517 222.301 173.594 222.301 173.672 222.301C174.286 222.299 174.785 222.795 174.787 223.41C174.788 224.024 174.292 224.523 173.678 224.524C173.598 224.525 173.519 224.525 173.439 224.525C173.343 224.525 173.247 224.525 173.15 224.524C173.05 224.524 172.953 224.511 172.861 224.486C172.769 224.509 172.672 224.522 172.572 224.521C170.445 224.5 168.336 224.403 166.248 224.233C165.636 224.183 165.18 223.646 165.23 223.034ZM179.947 223.176C179.985 223.789 179.519 224.317 178.906 224.355C178.82 224.36 178.734 224.366 178.647 224.371C178.575 224.375 178.503 224.379 178.432 224.383C177.818 224.418 177.293 223.949 177.258 223.336C177.224 222.723 177.692 222.198 178.305 222.163C178.46 222.154 178.614 222.145 178.768 222.135C179.381 222.097 179.909 222.563 179.947 223.176Z" fill="#C7CAFF"/>
<path fill-rule="evenodd" clip-rule="evenodd" d="M173.151 75.3019C173.247 75.3015 173.343 75.3013 173.439 75.3013C173.535 75.3013 173.631 75.3015 173.727 75.3019C173.827 75.3024 173.923 75.3158 174.015 75.3407C174.107 75.3175 174.203 75.3058 174.302 75.3071C176.425 75.3361 178.523 75.4716 180.59 75.7088C181.2 75.7788 181.638 76.3301 181.568 76.9402C181.498 77.5503 180.946 77.9882 180.336 77.9182C178.343 77.6896 176.32 77.5588 174.272 77.5309C174.176 77.5296 174.083 77.5162 173.995 77.4922C173.906 77.5146 173.813 77.5263 173.717 77.5258C173.625 77.5254 173.532 77.5252 173.439 77.5252C173.347 77.5252 173.254 77.5254 173.162 77.5258C172.547 77.5286 172.047 77.033 172.045 76.4189C172.042 75.8048 172.537 75.3047 173.151 75.3019ZM168.643 76.589C168.702 77.2003 168.254 77.7435 167.643 77.8022C167.46 77.8198 167.276 77.8383 167.093 77.8576C166.483 77.9219 165.935 77.479 165.871 76.8682C165.807 76.2575 166.25 75.7102 166.86 75.6459C167.05 75.6259 167.24 75.6068 167.43 75.5885C168.041 75.5297 168.585 75.9777 168.643 76.589ZM162.505 77.3809C162.625 77.9831 162.235 78.569 161.632 78.6895C159.632 79.0898 157.667 79.5899 155.744 80.1844C155.653 80.2126 155.561 80.2285 155.47 80.2329C155.392 80.2815 155.308 80.3212 155.217 80.3502C155.041 80.4064 154.865 80.4633 154.69 80.521C154.107 80.7133 153.478 80.3964 153.286 79.8132C153.094 79.2299 153.411 78.6012 153.994 78.4089C154.176 78.3491 154.358 78.29 154.54 78.2318C154.634 78.2016 154.73 78.1847 154.825 78.1801C154.905 78.1297 154.993 78.0889 155.088 78.0596C157.083 77.4429 159.121 76.9241 161.196 76.5088C161.798 76.3883 162.384 76.7788 162.505 77.3809ZM184.928 77.4838C185.054 76.8828 185.643 76.4978 186.244 76.6239C186.432 76.6632 186.619 76.7034 186.806 76.7444C187.406 76.8761 187.785 77.4691 187.654 78.0689C187.522 78.6688 186.929 79.0483 186.329 78.9166C186.149 78.8771 185.969 78.8383 185.788 78.8004C185.187 78.6743 184.802 78.0849 184.928 77.4838ZM190.941 78.9527C191.128 78.3677 191.754 78.0449 192.339 78.2318C192.521 78.29 192.703 78.3491 192.885 78.4089C192.979 78.44 193.066 78.4824 193.145 78.5341C193.24 78.5405 193.335 78.5591 193.429 78.591C195.428 79.271 197.382 80.0502 199.284 80.9227C199.842 81.1788 200.087 81.8389 199.831 82.3971C199.574 82.9553 198.914 83.2002 198.356 82.9441C196.523 82.103 194.64 81.352 192.713 80.6965C192.622 80.6658 192.538 80.6246 192.462 80.5747C192.371 80.5685 192.279 80.5509 192.188 80.521C192.013 80.4633 191.838 80.4064 191.662 80.3502C191.077 80.1634 190.754 79.5377 190.941 78.9527ZM150.106 81.0286C150.352 81.5914 150.094 82.2468 149.532 82.4925C149.363 82.5663 149.194 82.6408 149.026 82.716C148.465 82.9669 147.808 82.7159 147.557 82.1554C147.306 81.5948 147.557 80.9371 148.117 80.6862C148.292 80.6081 148.467 80.5308 148.642 80.4543C149.205 80.2086 149.86 80.4657 150.106 81.0286ZM144.517 83.6891C144.819 84.224 144.629 84.9022 144.095 85.2039C142.326 86.2018 140.613 87.2872 138.961 88.4542C138.883 88.5093 138.801 88.5529 138.715 88.5855C138.657 88.6555 138.589 88.7194 138.511 88.7752C138.362 88.8829 138.213 88.9912 138.065 89.1002C137.57 89.4639 136.874 89.3574 136.51 88.8625C136.147 88.3676 136.253 87.6717 136.748 87.308C136.902 87.195 137.056 87.0826 137.211 86.9709C137.292 86.9131 137.377 86.8674 137.465 86.8337C137.526 86.7611 137.597 86.6952 137.678 86.638C139.39 85.4277 141.167 84.302 143.002 83.2669C143.537 82.9652 144.215 83.1542 144.517 83.6891ZM202.856 83.959C203.163 83.4269 203.843 83.2442 204.375 83.5509C204.54 83.6463 204.705 83.7424 204.87 83.8393C205.399 84.1509 205.576 84.8325 205.264 85.3617C204.952 85.8909 204.271 86.0673 203.742 85.7557C203.583 85.6623 203.424 85.5696 203.264 85.4777C202.732 85.171 202.55 84.4911 202.856 83.959ZM208.115 87.223C208.474 86.7247 209.169 86.6119 209.668 86.9709C209.823 87.0826 209.977 87.195 210.131 87.308C210.211 87.3666 210.28 87.4339 210.34 87.5075C210.427 87.5428 210.512 87.59 210.591 87.6493C212.275 88.9105 213.892 90.2552 215.437 91.6774C215.889 92.0933 215.918 92.7968 215.502 93.2486C215.086 93.7004 214.383 93.7295 213.931 93.3136C212.441 91.9421 210.881 90.6454 209.258 89.4293C209.181 89.3721 209.115 89.307 209.057 89.236C208.973 89.2019 208.891 89.1567 208.814 89.1002C208.666 88.9912 208.517 88.8829 208.367 88.7752C207.869 88.4162 207.756 87.7212 208.115 87.223ZM133.862 91.0029C134.269 91.4623 134.227 92.1651 133.768 92.5726C133.63 92.6948 133.493 92.8177 133.356 92.9412C132.901 93.353 132.197 93.3174 131.786 92.8618C131.374 92.4061 131.409 91.703 131.865 91.2912C132.007 91.1631 132.149 91.0357 132.292 90.909C132.751 90.5014 133.454 90.5435 133.862 91.0029ZM129.367 95.2585C129.819 95.6745 129.848 96.3779 129.432 96.8297C128.06 98.3196 126.764 99.8793 125.548 101.503C125.49 101.579 125.425 101.646 125.354 101.703C125.32 101.788 125.275 101.87 125.218 101.947C125.109 102.095 125.001 102.244 124.893 102.393C124.534 102.891 123.839 103.004 123.341 102.645C122.843 102.286 122.73 101.591 123.089 101.093C123.201 100.938 123.313 100.784 123.426 100.63C123.485 100.55 123.552 100.48 123.626 100.421C123.661 100.333 123.708 100.249 123.768 100.17C125.029 98.4859 126.373 96.8685 127.796 95.3235C128.211 94.8717 128.915 94.8426 129.367 95.2585ZM217.899 95.6675C218.355 95.2557 219.058 95.2913 219.469 95.7469C219.598 95.8886 219.725 96.0309 219.852 96.1738C220.259 96.6332 220.217 97.336 219.758 97.7436C219.298 98.1511 218.596 98.1091 218.188 97.6497C218.066 97.5119 217.943 97.3747 217.819 97.238C217.408 96.7824 217.443 96.0793 217.899 95.6675ZM221.898 100.392C222.393 100.028 223.089 100.135 223.453 100.63C223.566 100.784 223.678 100.938 223.79 101.093C223.848 101.173 223.893 101.259 223.927 101.347C224 101.408 224.066 101.479 224.123 101.56C225.333 103.272 226.459 105.049 227.494 106.884C227.795 107.419 227.606 108.097 227.072 108.399C226.537 108.7 225.858 108.511 225.557 107.976C224.559 106.207 223.474 104.494 222.306 102.843C222.251 102.765 222.208 102.683 222.175 102.597C222.105 102.539 222.041 102.471 221.985 102.393C221.878 102.244 221.769 102.095 221.66 101.947C221.297 101.452 221.403 100.756 221.898 100.392ZM121.48 105.497C122.009 105.808 122.185 106.49 121.874 107.019C121.781 107.178 121.688 107.337 121.596 107.496C121.289 108.028 120.609 108.211 120.077 107.904C119.545 107.598 119.362 106.918 119.669 106.386C119.764 106.22 119.861 106.055 119.957 105.891C120.269 105.361 120.951 105.185 121.48 105.497ZM118.515 110.93C119.073 111.186 119.318 111.846 119.062 112.404C118.221 114.238 117.47 116.121 116.815 118.048C116.784 118.138 116.743 118.222 116.693 118.299C116.687 118.39 116.669 118.482 116.639 118.572C116.581 118.747 116.525 118.923 116.468 119.098C116.282 119.683 115.656 120.006 115.071 119.819C114.486 119.633 114.163 119.007 114.35 118.422C114.408 118.239 114.467 118.057 114.527 117.876C114.558 117.782 114.601 117.695 114.652 117.615C114.659 117.521 114.677 117.426 114.709 117.332C115.389 115.333 116.168 113.379 117.041 111.477C117.297 110.919 117.957 110.674 118.515 110.93ZM228.605 111.438C229.166 111.188 229.824 111.439 230.075 111.999C230.153 112.174 230.23 112.348 230.306 112.524C230.552 113.087 230.295 113.742 229.732 113.988C229.169 114.233 228.514 113.976 228.268 113.413C228.194 113.244 228.12 113.076 228.045 112.908C227.794 112.347 228.045 111.689 228.605 111.438ZM230.948 117.168C231.531 116.976 232.159 117.293 232.352 117.876C232.412 118.057 232.471 118.239 232.529 118.422C232.559 118.516 232.576 118.612 232.581 118.706C232.631 118.787 232.672 118.875 232.701 118.969C233.318 120.964 233.837 123.002 234.252 125.078C234.372 125.68 233.982 126.266 233.38 126.386C232.778 126.507 232.192 126.116 232.071 125.514C231.671 123.514 231.171 121.549 230.576 119.626C230.548 119.535 230.532 119.443 230.528 119.352C230.479 119.274 230.44 119.19 230.41 119.098C230.354 118.923 230.297 118.747 230.24 118.572C230.047 117.989 230.364 117.36 230.948 117.168ZM114.187 123.107C114.787 123.239 115.166 123.832 115.035 124.431C114.995 124.612 114.956 124.792 114.919 124.973C114.792 125.574 114.203 125.959 113.602 125.833C113.001 125.707 112.616 125.117 112.742 124.516C112.781 124.329 112.822 124.142 112.863 123.955C112.994 123.355 113.587 122.975 114.187 123.107ZM113.058 129.193C113.668 129.263 114.106 129.814 114.036 130.424C113.808 132.417 113.677 134.44 113.649 136.489C113.648 136.584 113.634 136.677 113.61 136.766C113.633 136.854 113.644 136.948 113.644 137.043C113.644 137.136 113.643 137.229 113.643 137.321C113.643 137.414 113.644 137.507 113.644 137.599C113.647 138.213 113.151 138.713 112.537 138.716C111.923 138.719 111.423 138.223 111.42 137.609C111.42 137.513 111.419 137.417 111.419 137.321C111.419 137.225 111.42 137.129 111.42 137.033C111.421 136.934 111.434 136.838 111.459 136.746C111.436 136.654 111.424 136.558 111.425 136.458C111.454 134.335 111.59 132.238 111.827 130.171C111.897 129.561 112.448 129.123 113.058 129.193ZM233.892 129.753C234.503 129.689 235.05 130.132 235.115 130.742C235.135 130.932 235.154 131.122 235.172 131.312C235.231 131.923 234.783 132.466 234.172 132.525C233.56 132.584 233.017 132.136 232.958 131.525C232.941 131.341 232.922 131.158 232.903 130.975C232.839 130.365 233.282 129.817 233.892 129.753ZM234.342 135.926C234.956 135.924 235.456 136.419 235.459 137.033C235.459 137.129 235.459 137.225 235.459 137.321C235.459 137.405 235.459 137.49 235.459 137.574C235.459 137.661 235.448 137.745 235.429 137.826C235.447 137.907 235.456 137.992 235.455 138.078C235.433 139.943 235.328 141.788 235.144 143.611C235.082 144.222 234.537 144.667 233.926 144.606C233.315 144.544 232.869 143.999 232.931 143.388C233.108 141.63 233.21 139.85 233.231 138.052C233.232 137.968 233.242 137.887 233.261 137.809C233.244 137.73 233.235 137.649 233.235 137.565C233.235 137.484 233.235 137.403 233.235 137.321C233.235 137.229 233.235 137.136 233.235 137.043C233.232 136.429 233.728 135.929 234.342 135.926ZM112.707 142.117C113.318 142.059 113.862 142.506 113.92 143.118C113.938 143.301 113.956 143.484 113.976 143.667C114.04 144.278 113.597 144.825 112.986 144.89C112.376 144.954 111.828 144.511 111.764 143.9C111.744 143.711 111.725 143.521 111.707 143.331C111.648 142.719 112.096 142.176 112.707 142.117ZM233.542 147.305C234.146 147.416 234.545 147.996 234.434 148.6C234.417 148.694 234.399 148.787 234.382 148.881C234.368 148.952 234.355 149.024 234.341 149.095C234.225 149.698 233.642 150.093 233.039 149.977C232.436 149.861 232.041 149.278 232.157 148.675C232.188 148.516 232.218 148.357 232.247 148.197C232.358 147.593 232.938 147.194 233.542 147.305ZM113.499 148.256C114.101 148.136 114.687 148.526 114.808 149.128C115.208 151.129 115.708 153.093 116.303 155.016C116.331 155.108 116.347 155.2 116.351 155.291C116.4 155.368 116.439 155.453 116.468 155.544C116.525 155.72 116.581 155.895 116.639 156.07C116.831 156.654 116.515 157.282 115.931 157.475C115.348 157.667 114.719 157.35 114.527 156.767C114.467 156.585 114.408 156.403 114.35 156.221C114.32 156.126 114.303 156.031 114.298 155.936C114.248 155.856 114.207 155.768 114.178 155.673C113.561 153.678 113.042 151.64 112.627 149.565C112.506 148.962 112.897 148.377 113.499 148.256ZM232.414 152.631C233.006 152.796 233.352 153.409 233.187 154.001C233.142 154.163 233.096 154.325 233.049 154.486C233.025 154.569 232.993 154.648 232.952 154.72C232.947 154.803 232.933 154.887 232.908 154.97C232.38 156.75 231.774 158.498 231.094 160.208C230.867 160.779 230.22 161.057 229.65 160.83C229.079 160.603 228.8 159.957 229.027 159.386C229.683 157.738 230.267 156.054 230.776 154.337C230.8 154.257 230.832 154.182 230.87 154.112C230.875 154.032 230.889 153.951 230.912 153.871C230.957 153.715 231.001 153.56 231.045 153.403C231.21 152.812 231.823 152.466 232.414 152.631ZM117.147 160.655C117.71 160.409 118.365 160.666 118.611 161.229C118.684 161.398 118.759 161.567 118.834 161.735C119.085 162.295 118.834 162.953 118.274 163.204C117.713 163.455 117.055 163.204 116.804 162.643C116.726 162.469 116.649 162.294 116.572 162.119C116.327 161.556 116.584 160.9 117.147 160.655ZM228.54 163.321C229.09 163.594 229.315 164.261 229.042 164.811C228.968 164.961 228.893 165.112 228.817 165.262C228.54 165.81 227.871 166.029 227.323 165.752C226.775 165.475 226.555 164.806 226.832 164.258C226.905 164.113 226.978 163.969 227.05 163.823C227.322 163.273 227.99 163.048 228.54 163.321ZM119.807 166.244C120.342 165.942 121.02 166.131 121.322 166.666C122.32 168.435 123.405 170.148 124.572 171.799C124.627 171.877 124.671 171.96 124.704 172.045C124.774 172.104 124.838 172.172 124.893 172.249C125.001 172.399 125.109 172.548 125.218 172.696C125.582 173.191 125.476 173.887 124.981 174.25C124.486 174.614 123.79 174.508 123.426 174.013C123.313 173.859 123.201 173.704 123.089 173.549C123.031 173.469 122.986 173.384 122.952 173.295C122.879 173.235 122.813 173.164 122.756 173.083C121.546 171.37 120.42 169.594 119.385 167.759C119.083 167.224 119.272 166.546 119.807 166.244ZM225.994 168.133C226.518 168.454 226.682 169.138 226.362 169.662C226.31 169.746 226.258 169.83 226.207 169.914C226.17 169.973 226.133 170.032 226.096 170.091C226.051 170.164 225.998 170.231 225.939 170.289C225.911 170.368 225.874 170.444 225.828 170.517C224.835 172.08 223.775 173.595 222.651 175.059C222.276 175.546 221.578 175.637 221.091 175.263C220.604 174.889 220.513 174.191 220.887 173.704C221.971 172.293 222.994 170.832 223.951 169.325C223.995 169.255 224.047 169.191 224.103 169.134C224.13 169.059 224.165 168.985 224.21 168.914C224.273 168.812 224.337 168.709 224.4 168.607C224.422 168.571 224.443 168.536 224.465 168.5C224.786 167.977 225.471 167.812 225.994 168.133ZM127.121 176.899C127.58 176.491 128.283 176.533 128.691 176.993C128.813 177.131 128.936 177.268 129.059 177.404C129.471 177.86 129.436 178.563 128.98 178.975C128.524 179.387 127.821 179.351 127.409 178.896C127.281 178.754 127.154 178.612 127.027 178.469C126.62 178.009 126.662 177.306 127.121 176.899ZM219.344 177.356C219.799 177.768 219.834 178.472 219.421 178.927C219.309 179.051 219.195 179.175 219.082 179.299C218.666 179.751 217.962 179.78 217.51 179.364C217.059 178.948 217.03 178.244 217.446 177.792C217.555 177.673 217.665 177.554 217.773 177.434C218.186 176.978 218.889 176.944 219.344 177.356ZM215.584 181.293C216 181.744 215.972 182.448 215.521 182.864C215.459 182.921 215.397 182.978 215.335 183.035L215.335 183.036C215.251 183.112 215.168 183.188 215.084 183.263C214.997 183.342 214.9 183.405 214.799 183.451C214.741 183.547 214.668 183.636 214.58 183.714C212.725 185.355 210.771 186.888 208.729 188.303C208.224 188.653 207.531 188.527 207.182 188.022C206.832 187.518 206.958 186.825 207.462 186.475C209.432 185.111 211.317 183.632 213.107 182.048C213.192 181.973 213.285 181.913 213.383 181.868C213.439 181.776 213.509 181.689 213.593 181.613C213.673 181.541 213.754 181.468 213.834 181.394C213.894 181.34 213.953 181.285 214.012 181.23C214.464 180.814 215.167 180.842 215.584 181.293ZM131.377 181.394C131.793 180.942 132.496 180.913 132.948 181.329C134.438 182.7 135.997 183.997 137.621 185.213C137.697 185.27 137.764 185.336 137.822 185.407C137.906 185.441 137.988 185.486 138.065 185.542C138.213 185.651 138.362 185.76 138.511 185.867C139.01 186.226 139.122 186.921 138.763 187.42C138.404 187.918 137.709 188.031 137.211 187.672C137.056 187.56 136.902 187.448 136.748 187.334C136.668 187.276 136.599 187.209 136.539 187.135C136.452 187.1 136.367 187.053 136.288 186.993C134.604 185.732 132.987 184.387 131.442 182.965C130.99 182.549 130.961 181.846 131.377 181.394ZM141.615 189.281C141.926 188.752 142.608 188.575 143.137 188.887C143.296 188.98 143.455 189.073 143.615 189.165C144.147 189.472 144.329 190.151 144.023 190.684C143.716 191.216 143.036 191.398 142.504 191.092C142.338 190.996 142.173 190.9 142.009 190.803C141.48 190.492 141.303 189.81 141.615 189.281ZM203.417 190.34C203.711 190.879 203.511 191.555 202.971 191.848C202.773 191.955 202.574 192.062 202.375 192.167C201.832 192.455 201.159 192.247 200.872 191.705C200.585 191.162 200.792 190.489 201.335 190.202C201.527 190.1 201.719 189.997 201.91 189.893C202.449 189.6 203.124 189.8 203.417 190.34ZM147.048 192.245C147.304 191.687 147.964 191.442 148.523 191.698C150.356 192.539 152.239 193.291 154.166 193.946C154.257 193.977 154.34 194.018 154.417 194.068C154.508 194.074 154.6 194.092 154.69 194.121C154.865 194.179 155.041 194.236 155.217 194.292C155.802 194.479 156.124 195.105 155.938 195.69C155.751 196.275 155.125 196.598 154.54 196.411C154.358 196.353 154.176 196.293 153.994 196.234C153.9 196.203 153.813 196.16 153.734 196.108C153.639 196.102 153.544 196.083 153.45 196.051C151.451 195.371 149.497 194.592 147.595 193.72C147.037 193.464 146.792 192.804 147.048 192.245ZM196.858 193.556C197.084 194.127 196.805 194.773 196.234 195C196.025 195.083 195.814 195.165 195.604 195.246C195.494 195.288 195.381 195.311 195.269 195.318C195.181 195.387 195.081 195.444 194.971 195.485C192.66 196.343 190.284 197.067 187.854 197.649C187.257 197.791 186.657 197.423 186.514 196.826C186.371 196.228 186.739 195.628 187.337 195.486C189.679 194.925 191.969 194.227 194.196 193.4C194.303 193.36 194.412 193.338 194.519 193.332C194.605 193.265 194.701 193.21 194.807 193.169C195.01 193.091 195.212 193.012 195.414 192.932C195.985 192.706 196.631 192.985 196.858 193.556ZM159.225 196.574C159.357 195.974 159.95 195.594 160.55 195.726C160.73 195.765 160.91 195.804 161.091 195.842C161.692 195.968 162.077 196.558 161.951 197.159C161.825 197.76 161.236 198.145 160.634 198.019C160.447 197.979 160.26 197.939 160.073 197.898C159.473 197.766 159.093 197.173 159.225 196.574ZM182.165 197.616C182.241 198.225 181.809 198.781 181.2 198.858C180.976 198.886 180.752 198.912 180.528 198.938C179.918 199.008 179.367 198.57 179.297 197.96C179.227 197.35 179.665 196.798 180.275 196.729C180.491 196.704 180.707 196.678 180.923 196.651C181.532 196.574 182.088 197.006 182.165 197.616ZM165.311 197.702C165.381 197.092 165.932 196.654 166.543 196.724C168.535 196.953 170.558 197.084 172.607 197.112C172.703 197.113 172.795 197.126 172.884 197.15C172.973 197.128 173.066 197.116 173.162 197.117C173.254 197.117 173.347 197.117 173.439 197.117C173.548 197.117 173.657 197.117 173.766 197.116C174.38 197.113 174.881 197.608 174.884 198.222C174.888 198.837 174.392 199.337 173.778 199.34C173.712 199.341 173.645 199.341 173.578 199.341C173.532 199.341 173.486 199.341 173.439 199.341C173.343 199.341 173.247 199.341 173.151 199.341C173.052 199.34 172.956 199.327 172.864 199.302C172.772 199.325 172.676 199.337 172.576 199.335C170.453 199.306 168.356 199.171 166.289 198.934C165.679 198.864 165.241 198.312 165.311 197.702Z" fill="#C7CAFF"/>
<path fill-rule="evenodd" clip-rule="evenodd" d="M173.439 29.5018C113.868 29.5018 65.6192 77.751 65.6192 137.322C65.6192 196.892 113.868 245.141 173.439 245.141C201.525 245.141 227.077 234.361 246.272 216.784L246.272 216.784C267.783 197.106 281.259 168.805 281.259 137.322C281.259 77.751 233.01 29.5018 173.439 29.5018ZM63.3953 137.322C63.3953 76.5228 112.64 27.2778 173.439 27.2778C234.238 27.2778 283.483 76.5228 283.483 137.322C283.483 169.454 269.726 198.343 247.773 218.425C228.188 236.36 202.106 247.365 173.439 247.365C112.64 247.365 63.3953 198.12 63.3953 137.322Z" fill="#C7CAFF"/>
<path fill-rule="evenodd" clip-rule="evenodd" d="M165.845 1.65374C165.884 2.26664 165.418 2.79487 164.805 2.83357C112.959 6.10744 69.0914 38.668 49.5552 84.1729C49.3129 84.7372 48.659 84.9982 48.0947 84.756C47.5304 84.5137 47.2693 83.8598 47.5116 83.2955C67.3687 37.0431 111.958 3.94232 164.665 0.614065C165.278 0.575363 165.806 1.04084 165.845 1.65374Z" fill="#C7CAFF"/>
<path fill-rule="evenodd" clip-rule="evenodd" d="M323.665 158.476C324.273 158.565 324.693 159.13 324.604 159.738C324.592 159.822 324.579 159.906 324.567 159.991C324.554 160.078 324.531 160.161 324.5 160.239C324.506 160.323 324.504 160.409 324.49 160.496C324.208 162.353 323.892 164.198 323.544 166.032C323.429 166.635 322.847 167.032 322.244 166.917C321.641 166.802 321.244 166.22 321.359 165.617C321.702 163.81 322.014 161.991 322.292 160.162C322.305 160.076 322.327 159.994 322.358 159.917C322.351 159.834 322.354 159.749 322.367 159.664C322.379 159.581 322.391 159.497 322.404 159.414C322.493 158.807 323.058 158.387 323.665 158.476ZM321.666 169.704C322.265 169.839 322.641 170.434 322.506 171.033C322.469 171.199 322.431 171.365 322.393 171.531C322.256 172.129 321.66 172.504 321.061 172.367C320.463 172.23 320.088 171.634 320.225 171.035C320.263 170.871 320.3 170.708 320.337 170.544C320.471 169.945 321.066 169.569 321.666 169.704ZM320.381 175.129C320.974 175.286 321.328 175.894 321.172 176.488C321.128 176.653 321.084 176.817 321.04 176.982C321.017 177.067 320.985 177.147 320.945 177.221C320.943 177.305 320.93 177.39 320.907 177.475C320.415 179.286 319.891 181.083 319.335 182.867C319.152 183.453 318.528 183.78 317.942 183.597C317.356 183.415 317.029 182.791 317.212 182.205C317.76 180.448 318.276 178.677 318.761 176.892C318.783 176.809 318.815 176.73 318.854 176.657C318.857 176.574 318.869 176.49 318.892 176.406C318.935 176.244 318.979 176.082 319.021 175.92C319.178 175.326 319.787 174.972 320.381 175.129ZM317.049 186.299C317.629 186.502 317.935 187.136 317.732 187.716C317.676 187.876 317.62 188.037 317.563 188.197C317.359 188.776 316.724 189.08 316.144 188.876C315.565 188.671 315.262 188.036 315.466 187.457C315.522 187.299 315.577 187.141 315.633 186.982C315.835 186.403 316.469 186.097 317.049 186.299ZM315.152 191.543C315.724 191.766 316.006 192.411 315.782 192.983C315.72 193.142 315.658 193.3 315.595 193.459C315.563 193.54 315.522 193.616 315.474 193.685C315.461 193.768 315.439 193.851 315.407 193.933C314.711 195.675 313.985 197.401 313.228 199.11C312.979 199.672 312.322 199.925 311.761 199.677C311.199 199.428 310.946 198.771 311.194 198.21C311.94 196.525 312.656 194.825 313.341 193.108C313.373 193.028 313.414 192.954 313.461 192.885C313.473 192.803 313.495 192.721 313.527 192.641C313.589 192.485 313.65 192.329 313.711 192.173C313.935 191.601 314.58 191.319 315.152 191.543ZM310.565 202.258C311.118 202.525 311.349 203.19 311.082 203.743C311.008 203.896 310.933 204.05 310.859 204.203C310.589 204.755 309.924 204.984 309.372 204.714C308.82 204.445 308.591 203.779 308.86 203.227C308.933 203.077 309.007 202.926 309.08 202.775C309.347 202.222 310.012 201.99 310.565 202.258ZM308.081 207.25C308.624 207.538 308.83 208.211 308.543 208.754C308.463 208.904 308.383 209.054 308.303 209.204C308.261 209.282 308.212 209.352 308.156 209.415C308.135 209.497 308.103 209.577 308.061 209.654C307.172 211.304 306.253 212.936 305.306 214.549C304.995 215.078 304.314 215.255 303.784 214.944C303.254 214.633 303.077 213.952 303.388 213.422C304.322 211.833 305.227 210.225 306.104 208.599C306.145 208.523 306.193 208.453 306.248 208.391C306.27 208.311 306.301 208.232 306.341 208.156C306.42 208.008 306.499 207.86 306.578 207.712C306.866 207.169 307.539 206.963 308.081 207.25ZM302.302 217.373C302.821 217.702 302.975 218.389 302.646 218.908C302.555 219.051 302.464 219.195 302.372 219.339C302.042 219.856 301.354 220.008 300.837 219.678C300.319 219.347 300.167 218.66 300.497 218.142C300.588 218.001 300.678 217.859 300.767 217.717C301.096 217.199 301.783 217.045 302.302 217.373ZM299.266 222.05C299.772 222.398 299.901 223.09 299.554 223.596C299.457 223.736 299.361 223.877 299.264 224.017C299.214 224.089 299.157 224.154 299.095 224.21C299.064 224.288 299.023 224.364 298.973 224.436C297.903 225.974 296.805 227.491 295.68 228.986C295.311 229.477 294.614 229.575 294.123 229.206C293.632 228.837 293.533 228.14 293.903 227.649C295.011 226.176 296.093 224.681 297.148 223.166C297.197 223.095 297.253 223.031 297.315 222.975C297.346 222.898 297.385 222.823 297.435 222.752C297.53 222.614 297.625 222.476 297.72 222.338C298.068 221.831 298.76 221.703 299.266 222.05ZM292.375 231.451C292.853 231.837 292.928 232.537 292.543 233.015C292.436 233.147 292.329 233.28 292.222 233.412C291.835 233.889 291.135 233.962 290.658 233.575C290.181 233.188 290.108 232.488 290.495 232.011C290.6 231.88 290.706 231.75 290.811 231.619C291.197 231.141 291.897 231.066 292.375 231.451ZM288.828 235.754C289.292 236.157 289.342 236.859 288.939 237.323C288.828 237.451 288.716 237.58 288.604 237.708C288.546 237.774 288.482 237.832 288.414 237.881C288.374 237.955 288.325 238.026 288.267 238.092C287.03 239.498 285.768 240.88 284.48 242.24C284.058 242.685 283.354 242.705 282.908 242.282C282.462 241.86 282.443 241.156 282.866 240.71C284.134 239.371 285.378 238.008 286.598 236.623C286.655 236.558 286.718 236.501 286.785 236.453C286.824 236.379 286.872 236.309 286.929 236.244C287.04 236.118 287.15 235.992 287.26 235.865C287.662 235.401 288.365 235.352 288.828 235.754ZM280.918 244.315C281.349 244.752 281.345 245.456 280.908 245.888C280.787 246.007 280.665 246.127 280.544 246.246C280.106 246.676 279.402 246.669 278.972 246.231C278.541 245.793 278.548 245.089 278.986 244.658C279.106 244.541 279.226 244.423 279.345 244.305C279.782 243.874 280.486 243.878 280.918 244.315ZM276.908 248.19C277.323 248.642 277.293 249.345 276.84 249.761C276.778 249.818 276.715 249.876 276.652 249.933C276.199 250.348 275.496 250.316 275.081 249.863C274.667 249.41 274.698 248.707 275.151 248.292C275.213 248.236 275.275 248.179 275.337 248.122C275.789 247.707 276.492 247.737 276.908 248.19Z" fill="#C7CAFF"/>
<path fill-rule="evenodd" clip-rule="evenodd" d="M295.744 48.8523C296.241 48.4923 296.936 48.6038 297.296 49.1014C297.346 49.1705 297.396 49.2396 297.446 49.3087C297.497 49.3801 297.539 49.4555 297.572 49.5333C297.635 49.5888 297.693 49.6525 297.744 49.724C298.837 51.2509 299.899 52.7932 300.929 54.3501C301.268 54.8623 301.127 55.5522 300.615 55.891C300.103 56.2298 299.413 56.0893 299.074 55.5771C298.059 54.043 297.013 52.5232 295.936 51.0185C295.886 50.948 295.845 50.8737 295.813 50.7969C295.75 50.7422 295.693 50.6796 295.642 50.6093C295.593 50.5412 295.544 50.473 295.494 50.405C295.135 49.9074 295.246 49.2122 295.744 48.8523ZM302.145 58.2908C302.668 57.9694 303.353 58.133 303.674 58.6563C303.764 58.8014 303.852 58.9466 303.941 59.0919C304.261 59.6163 304.095 60.3005 303.57 60.6202C303.046 60.9398 302.362 60.7738 302.042 60.2495C301.955 60.1063 301.867 59.9632 301.779 59.8203C301.458 59.297 301.622 58.6122 302.145 58.2908ZM305.01 63.0736C305.545 62.7718 306.223 62.9607 306.525 63.4956C306.608 63.644 306.692 63.7925 306.775 63.9411C306.818 64.0178 306.851 64.0974 306.874 64.1783C306.931 64.2407 306.981 64.3105 307.024 64.3873C307.935 66.0277 308.814 67.6812 309.659 69.3468C309.938 69.8944 309.719 70.5637 309.172 70.8418C308.624 71.1198 307.955 70.9014 307.677 70.3538C306.843 68.7127 305.977 67.0835 305.08 65.4671C305.038 65.3915 305.005 65.313 304.982 65.2332C304.927 65.1718 304.877 65.1031 304.835 65.0275C304.753 64.8811 304.67 64.7347 304.588 64.5885C304.286 64.0537 304.475 63.3754 305.01 63.0736ZM310.417 73.4003C310.974 73.1409 311.635 73.3817 311.895 73.9384C311.967 74.0926 312.038 74.2469 312.11 74.4013C312.367 74.9588 312.124 75.6195 311.567 75.8771C311.009 76.1347 310.348 75.8916 310.091 75.3341C310.02 75.182 309.95 75.0299 309.879 74.878C309.62 74.3213 309.861 73.6598 310.417 73.4003ZM312.716 78.4801C313.282 78.2415 313.934 78.5067 314.173 79.0726C314.239 79.2294 314.305 79.3864 314.371 79.5434C314.405 79.6245 314.428 79.7072 314.442 79.7903C314.491 79.8586 314.533 79.9337 314.567 80.0148C315.284 81.7478 315.968 83.4912 316.618 85.2439C316.832 85.8196 316.538 86.4596 315.962 86.6732C315.387 86.8869 314.747 86.5933 314.533 86.0175C313.892 84.2905 313.218 82.5728 312.512 80.8652C312.479 80.7853 312.456 80.7037 312.442 80.6218C312.394 80.5545 312.352 80.4806 312.319 80.4007C312.254 80.246 312.189 80.0913 312.124 79.9368C311.885 79.3709 312.151 78.7187 312.716 78.4801ZM316.907 89.3565C317.49 89.1623 318.119 89.4772 318.313 90.0599C318.367 90.2215 318.421 90.3832 318.474 90.5449C318.666 91.1282 318.349 91.7568 317.766 91.949C317.183 92.1412 316.554 91.8242 316.362 91.2409C316.309 91.0815 316.257 90.9222 316.204 90.763C316.009 90.1803 316.324 89.5506 316.907 89.3565ZM318.611 94.6661C319.2 94.4936 319.818 94.8316 319.99 95.421C320.038 95.5843 320.086 95.7477 320.133 95.9111C320.157 95.9955 320.171 96.0804 320.176 96.1645C320.217 96.238 320.25 96.3174 320.274 96.4018C320.788 98.2043 321.269 100.014 321.715 101.831C321.862 102.427 321.497 103.029 320.901 103.176C320.305 103.323 319.702 102.958 319.556 102.362C319.116 100.572 318.642 98.7882 318.135 97.0121C318.112 96.9289 318.098 96.8452 318.094 96.7623C318.053 96.6899 318.021 96.6117 317.996 96.5286C317.95 96.3675 317.903 96.2065 317.856 96.0456C317.684 95.4562 318.022 94.8386 318.611 94.6661ZM321.534 105.95C322.135 105.824 322.725 106.208 322.851 106.809C322.886 106.976 322.921 107.142 322.956 107.309C323.08 107.91 322.694 108.499 322.092 108.623C321.491 108.748 320.902 108.361 320.778 107.76C320.744 107.596 320.709 107.431 320.675 107.267C320.548 106.666 320.933 106.077 321.534 105.95ZM322.622 111.419C323.228 111.314 323.803 111.72 323.907 112.325C323.936 112.493 323.965 112.661 323.993 112.829C324.008 112.915 324.012 113.001 324.007 113.085C324.039 113.163 324.063 113.246 324.077 113.333C324.383 115.181 324.655 117.033 324.893 118.889C324.971 119.499 324.54 120.056 323.931 120.134C323.322 120.212 322.765 119.781 322.687 119.172C322.453 117.343 322.185 115.517 321.883 113.696C321.869 113.61 321.865 113.526 321.87 113.443C321.839 113.366 321.815 113.285 321.8 113.199C321.772 113.034 321.744 112.869 321.716 112.703C321.611 112.098 322.017 111.523 322.622 111.419ZM324.245 122.962C324.857 122.904 325.399 123.353 325.457 123.964C325.473 124.134 325.488 124.303 325.504 124.473C325.559 125.084 325.108 125.625 324.497 125.681C323.885 125.736 323.344 125.286 323.289 124.674C323.274 124.507 323.258 124.34 323.242 124.173C323.185 123.562 323.634 123.019 324.245 122.962ZM324.707 128.518C325.32 128.483 325.846 128.952 325.881 129.565C325.891 129.735 325.9 129.905 325.909 130.075C325.914 130.162 325.908 130.248 325.894 130.331C325.917 130.412 325.931 130.497 325.936 130.585C326.031 132.455 326.091 134.326 326.117 136.198C326.126 136.812 325.635 137.317 325.021 137.325C324.407 137.334 323.902 136.843 323.893 136.229C323.868 134.384 323.808 132.54 323.715 130.697C323.71 130.611 323.716 130.526 323.731 130.444C323.708 130.365 323.693 130.281 323.689 130.195C323.679 130.027 323.67 129.86 323.661 129.692C323.625 129.079 324.094 128.553 324.707 128.518ZM325.013 140.171C325.627 140.183 326.115 140.69 326.103 141.304C326.1 141.474 326.097 141.644 326.093 141.814C326.079 142.428 325.57 142.915 324.956 142.901C324.342 142.887 323.855 142.378 323.869 141.764C323.873 141.596 323.877 141.429 323.88 141.261C323.892 140.647 324.399 140.159 325.013 140.171ZM324.844 145.744C325.457 145.778 325.926 146.303 325.892 146.916C325.887 147.001 325.882 147.086 325.877 147.171C325.842 147.785 325.316 148.253 324.703 148.217C324.09 148.182 323.622 147.656 323.657 147.043C323.662 146.96 323.667 146.876 323.671 146.792C323.706 146.179 324.231 145.71 324.844 145.744Z" fill="#C7CAFF"/>
<path fill-rule="evenodd" clip-rule="evenodd" d="M299.946 170.216C300.54 170.372 300.895 170.98 300.738 171.574C300.714 171.665 300.69 171.756 300.666 171.846C300.641 171.94 300.605 172.028 300.559 172.109C300.559 172.202 300.546 172.296 300.521 172.39C299.981 174.387 299.396 176.365 298.768 178.324C298.58 178.908 297.954 179.23 297.369 179.043C296.785 178.855 296.463 178.229 296.65 177.644C297.268 175.718 297.843 173.773 298.374 171.81C298.399 171.718 298.435 171.631 298.479 171.552C298.48 171.46 298.492 171.368 298.517 171.275C298.541 171.186 298.564 171.097 298.588 171.008C298.744 170.414 299.353 170.059 299.946 170.216ZM296.277 182.214C296.853 182.427 297.149 183.066 296.936 183.642C296.871 183.818 296.806 183.994 296.741 184.17C296.526 184.745 295.886 185.037 295.31 184.823C294.735 184.608 294.442 183.968 294.657 183.392C294.722 183.22 294.786 183.047 294.849 182.874C295.062 182.297 295.701 182.002 296.277 182.214ZM294.072 187.94C294.637 188.179 294.902 188.831 294.664 189.397C294.591 189.57 294.517 189.742 294.444 189.914C294.406 190.004 294.357 190.086 294.3 190.159C294.286 190.251 294.26 190.342 294.222 190.431C293.402 192.328 292.54 194.202 291.636 196.052C291.367 196.604 290.701 196.833 290.149 196.564C289.597 196.294 289.368 195.628 289.638 195.076C290.526 193.257 291.374 191.414 292.18 189.549C292.218 189.462 292.266 189.381 292.322 189.309C292.336 189.219 292.361 189.129 292.399 189.041C292.471 188.871 292.543 188.702 292.615 188.532C292.853 187.966 293.506 187.701 294.072 187.94ZM288.613 199.546C289.153 199.838 289.354 200.513 289.061 201.053C288.972 201.218 288.882 201.383 288.792 201.547C288.498 202.086 287.822 202.284 287.283 201.989C286.744 201.694 286.547 201.018 286.841 200.48C286.93 200.318 287.018 200.156 287.106 199.994C287.399 199.454 288.074 199.253 288.613 199.546ZM285.611 204.897C286.137 205.214 286.306 205.898 285.989 206.423C285.892 206.584 285.795 206.744 285.697 206.904C285.647 206.987 285.587 207.061 285.52 207.126C285.493 207.215 285.454 207.301 285.403 207.384C284.322 209.143 283.201 210.875 282.042 212.578C281.696 213.086 281.005 213.217 280.497 212.872C279.989 212.526 279.858 211.835 280.203 211.327C281.343 209.652 282.446 207.949 283.509 206.219C283.559 206.138 283.618 206.065 283.684 206.002C283.71 205.914 283.748 205.829 283.798 205.747C283.894 205.59 283.989 205.432 284.085 205.275C284.402 204.749 285.085 204.58 285.611 204.897ZM278.552 215.605C279.045 215.971 279.147 216.668 278.781 217.161C278.717 217.246 278.653 217.332 278.589 217.418C278.541 217.482 278.493 217.547 278.444 217.611C278.076 218.103 277.379 218.202 276.887 217.834C276.396 217.465 276.297 216.768 276.665 216.277C276.776 216.129 276.886 215.982 276.996 215.834C277.363 215.341 278.059 215.238 278.552 215.605ZM274.819 220.474C275.294 220.863 275.364 221.563 274.975 222.039C274.857 222.184 274.738 222.329 274.618 222.473C274.556 222.548 274.487 222.613 274.412 222.667C274.372 222.751 274.322 222.832 274.259 222.907C272.94 224.493 271.584 226.047 270.194 227.57C269.78 228.024 269.077 228.056 268.623 227.642C268.17 227.228 268.138 226.524 268.552 226.071C269.919 224.573 271.252 223.044 272.55 221.484C272.611 221.411 272.679 221.347 272.753 221.294C272.792 221.211 272.842 221.132 272.903 221.058C273.02 220.916 273.137 220.773 273.254 220.631C273.643 220.155 274.343 220.085 274.819 220.474ZM266.31 230.071C266.746 230.504 266.749 231.208 266.316 231.644C266.184 231.777 266.051 231.909 265.919 232.042C265.484 232.476 264.78 232.475 264.346 232.041C263.912 231.606 263.913 230.902 264.347 230.468C264.478 230.338 264.608 230.208 264.738 230.077C265.17 229.641 265.874 229.638 266.31 230.071ZM261.924 234.361C262.339 234.814 262.31 235.517 261.857 235.933C261.788 235.996 261.719 236.059 261.65 236.123C261.579 236.188 261.507 236.253 261.436 236.319C261.361 236.386 261.28 236.442 261.195 236.486C261.143 236.567 261.079 236.643 261.004 236.71C259.421 238.141 257.803 239.536 256.153 240.892C255.679 241.282 254.978 241.213 254.588 240.738C254.198 240.264 254.267 239.563 254.741 239.173C256.365 237.84 257.956 236.468 259.513 235.06C259.587 234.994 259.666 234.939 259.751 234.896C259.802 234.816 259.864 234.742 259.937 234.675C260.008 234.611 260.078 234.547 260.149 234.482L260.149 234.482C260.217 234.419 260.285 234.357 260.353 234.295C260.805 233.879 261.509 233.909 261.924 234.361ZM251.796 242.933C252.165 243.424 252.067 244.121 251.576 244.49C251.421 244.607 251.265 244.723 251.11 244.839C250.617 245.206 249.92 245.105 249.553 244.612C249.187 244.12 249.288 243.423 249.781 243.056C249.934 242.942 250.087 242.828 250.239 242.713C250.73 242.344 251.427 242.443 251.796 242.933ZM246.661 246.673C247.006 247.18 246.874 247.872 246.367 248.218C246.206 248.327 246.045 248.435 245.885 248.544C245.801 248.6 245.713 248.644 245.622 248.675C245.558 248.747 245.485 248.812 245.401 248.868C243.627 250.053 241.823 251.196 239.991 252.298C239.465 252.614 238.781 252.444 238.465 251.917C238.149 251.391 238.319 250.708 238.845 250.391C240.647 249.308 242.421 248.184 244.166 247.019C244.248 246.964 244.335 246.921 244.425 246.891C244.487 246.819 244.56 246.755 244.642 246.7C244.8 246.593 244.958 246.486 245.116 246.379C245.624 246.033 246.315 246.165 246.661 246.673ZM235.382 253.68C235.676 254.22 235.476 254.895 234.936 255.188C234.766 255.281 234.595 255.373 234.424 255.465C233.883 255.756 233.209 255.553 232.918 255.012C232.627 254.472 232.83 253.797 233.371 253.506C233.539 253.416 233.707 253.325 233.874 253.234C234.414 252.941 235.089 253.141 235.382 253.68ZM229.754 256.626C230.021 257.179 229.789 257.844 229.236 258.111C229.062 258.196 228.887 258.28 228.712 258.363C228.621 258.407 228.527 258.437 228.432 258.454C228.359 258.516 228.277 258.57 228.186 258.613C226.258 259.524 224.306 260.389 222.329 261.209C221.762 261.445 221.112 261.175 220.876 260.608C220.641 260.041 220.91 259.39 221.477 259.155C223.421 258.349 225.341 257.497 227.236 256.602C227.325 256.56 227.418 256.531 227.511 256.514C227.583 256.452 227.664 256.399 227.753 256.357C227.925 256.274 228.097 256.192 228.269 256.109C228.822 255.842 229.487 256.073 229.754 256.626ZM217.567 261.897C217.778 262.474 217.48 263.112 216.903 263.323C216.721 263.389 216.538 263.455 216.356 263.521C215.778 263.729 215.141 263.429 214.933 262.851C214.725 262.273 215.025 261.636 215.603 261.428C215.783 261.363 215.962 261.299 216.142 261.233C216.719 261.023 217.357 261.32 217.567 261.897ZM211.565 263.979C211.747 264.565 211.42 265.189 210.833 265.371C210.648 265.428 210.463 265.486 210.277 265.542C210.181 265.572 210.084 265.588 209.988 265.591C209.906 265.642 209.816 265.683 209.72 265.712C207.681 266.326 205.622 266.893 203.543 267.411C202.947 267.56 202.344 267.197 202.195 266.601C202.047 266.005 202.409 265.402 203.005 265.253C205.049 264.744 207.074 264.186 209.079 263.582C209.173 263.554 209.269 263.538 209.363 263.535C209.444 263.485 209.532 263.445 209.626 263.416C209.809 263.36 209.991 263.304 210.173 263.247C210.76 263.065 211.383 263.393 211.565 263.979ZM198.732 267.385C198.854 267.986 198.466 268.574 197.864 268.696C197.674 268.735 197.483 268.773 197.293 268.811C196.69 268.93 196.105 268.539 195.985 267.937C195.866 267.334 196.257 266.749 196.859 266.629C197.047 266.592 197.234 266.555 197.421 266.517C198.022 266.394 198.61 266.783 198.732 267.385ZM192.487 268.553C192.581 269.16 192.164 269.728 191.557 269.821C191.461 269.836 191.365 269.85 191.269 269.865C190.662 269.957 190.095 269.539 190.003 268.932C189.911 268.325 190.329 267.758 190.936 267.666C191.03 267.652 191.125 267.637 191.219 267.623C191.826 267.53 192.394 267.946 192.487 268.553Z" fill="#C7CAFF"/>
<path fill-rule="evenodd" clip-rule="evenodd" d="M48.8156 32.5128C49.2881 32.9051 49.3531 33.6061 48.9608 34.0786C48.9024 34.149 48.844 34.2194 48.7857 34.2899C48.3942 34.7631 47.6933 34.8293 47.2201 34.4378C46.747 34.0464 46.6807 33.3454 47.0722 32.8723C47.1313 32.8008 47.1905 32.7294 47.2497 32.6581C47.642 32.1856 48.3431 32.1205 48.8156 32.5128ZM45.1577 37.0182C45.6438 37.3935 45.7337 38.0918 45.3584 38.5779C45.2466 38.7228 45.135 38.8678 45.0237 39.0131C44.6501 39.5005 43.9521 39.5927 43.4647 39.2191C42.9773 38.8455 42.885 38.1475 43.2587 37.6601C43.3715 37.5129 43.4846 37.3658 43.598 37.219C43.9733 36.7328 44.6716 36.643 45.1577 37.0182ZM41.4997 41.8744C41.9995 42.2313 42.1153 42.9258 41.7584 43.4255C40.5893 45.0625 39.45 46.7223 38.3413 48.4039C38.2892 48.483 38.2287 48.5533 38.1617 48.6143C38.1323 48.7 38.0918 48.7834 38.04 48.8627C37.9398 49.0158 37.8398 49.1691 37.7401 49.3225C37.4056 49.8375 36.7169 49.9838 36.2019 49.6493C35.6869 49.3147 35.5406 48.626 35.8752 48.111C35.9762 47.9555 36.0775 47.8001 36.1791 47.6449C36.2317 47.5645 36.2929 47.4932 36.3608 47.4313C36.3906 47.3445 36.4317 47.26 36.4846 47.1798C37.6085 45.475 38.7635 43.7925 39.9486 42.1331C40.3055 41.6333 40.9999 41.5175 41.4997 41.8744ZM34.4495 52.4498C34.9756 52.7667 35.1451 53.45 34.8283 53.9761C34.7339 54.1328 34.6398 54.2896 34.5459 54.4467C34.2308 54.9738 33.5481 55.1457 33.0209 54.8306C32.4938 54.5155 32.3219 53.8328 32.637 53.3056C32.7322 53.1464 32.8276 52.9874 32.9233 52.8286C33.2401 52.3025 33.9235 52.1329 34.4495 52.4498ZM31.3744 57.6947C31.9119 57.9917 32.1069 58.6682 31.8099 59.2057C30.8377 60.9654 29.8974 62.7452 28.9897 64.5442C28.947 64.6288 28.8949 64.7056 28.8354 64.774C28.8161 64.8625 28.7855 64.9501 28.7431 65.0349C28.6612 65.1986 28.5796 65.3625 28.4982 65.5265C28.2253 66.0767 27.5581 66.3015 27.008 66.0286C26.4578 65.7557 26.233 65.0885 26.5059 64.5383C26.5884 64.372 26.6712 64.2059 26.7542 64.0399C26.7972 63.9539 26.8499 63.876 26.9101 63.8067C26.9298 63.717 26.9609 63.6282 27.0042 63.5424C27.9244 61.7185 28.8778 59.9142 29.8634 58.1303C30.1603 57.5927 30.8368 57.3977 31.3744 57.6947ZM25.5909 69.012C26.1501 69.2659 26.3975 69.9251 26.1435 70.4842C26.0678 70.6509 25.9924 70.8176 25.9173 70.9846C25.6652 71.5446 25.0069 71.7942 24.4469 71.5421C23.8869 71.2901 23.6372 70.6317 23.8893 70.0717C23.9655 69.9025 24.0419 69.7334 24.1186 69.5645C24.3726 69.0054 25.0318 68.758 25.5909 69.012ZM23.1426 74.5771C23.7109 74.8099 23.9829 75.4593 23.7501 76.0276C22.9884 77.887 22.2603 79.7639 21.5666 81.6573C21.534 81.7462 21.4913 81.8284 21.4402 81.9032C21.4312 81.9932 21.411 82.0837 21.3788 82.1727C21.3164 82.3446 21.2544 82.5166 21.1926 82.6888C20.9853 83.2669 20.3487 83.5675 19.7706 83.3601C19.1925 83.1528 18.892 82.5161 19.0993 81.9381C19.1619 81.7635 19.2248 81.5891 19.288 81.4148C19.3207 81.3245 19.3639 81.2411 19.4156 81.1654C19.4247 81.0741 19.4454 80.9824 19.4784 80.8923C20.1817 78.9726 20.9199 77.0698 21.6921 75.1845C21.9249 74.6162 22.5743 74.3443 23.1426 74.5771ZM18.7085 86.489C19.2933 86.6764 19.6155 87.3024 19.4281 87.8872C19.3723 88.0614 19.3167 88.2357 19.2615 88.4101C19.0761 88.9955 18.4512 89.3198 17.8657 89.1344C17.2802 88.949 16.9559 88.3241 17.1414 87.7386C17.1974 87.5618 17.2537 87.3851 17.3102 87.2085C17.4977 86.6237 18.1237 86.3015 18.7085 86.489ZM16.9225 92.2997C17.5139 92.465 17.8594 93.0785 17.6941 93.6699C17.1537 95.6036 16.6484 97.552 16.1787 99.5143C16.1567 99.6064 16.1238 99.6931 16.0817 99.7733C16.0832 99.8639 16.0736 99.9561 16.0519 100.048C16.0099 100.226 15.9682 100.405 15.9268 100.583C15.788 101.181 15.1905 101.554 14.5923 101.415C13.994 101.276 13.6216 100.678 13.7605 100.08C13.8025 99.8994 13.8447 99.7187 13.8873 99.5381C13.9093 99.4446 13.9426 99.3567 13.9853 99.2754C13.9837 99.1836 13.9935 99.0901 14.0159 98.9967C14.492 97.0072 15.0044 95.0319 15.5523 93.0714C15.7176 92.4799 16.331 92.1344 16.9225 92.2997ZM13.9004 104.645C14.503 104.763 14.8956 105.348 14.7772 105.95C14.742 106.13 14.707 106.309 14.6724 106.489C14.5561 107.092 13.973 107.487 13.37 107.37C12.767 107.254 12.3724 106.671 12.4887 106.068C12.5238 105.886 12.5593 105.704 12.595 105.522C12.7133 104.919 13.2978 104.527 13.9004 104.645ZM12.7995 110.625C13.4061 110.721 13.8203 111.29 13.7246 111.897C13.412 113.878 13.1354 115.872 12.8954 117.876C12.8841 117.971 12.8614 118.061 12.8287 118.145C12.8408 118.235 12.8419 118.328 12.831 118.422C12.8098 118.604 12.789 118.786 12.7684 118.968C12.6995 119.579 12.149 120.017 11.5388 119.949C10.9285 119.88 10.4896 119.329 10.5585 118.719C10.5794 118.534 10.6005 118.35 10.6219 118.165C10.6331 118.07 10.656 117.979 10.689 117.893C10.6768 117.802 10.6758 117.708 10.6872 117.612C10.9305 115.58 11.211 113.559 11.5279 111.55C11.6236 110.944 12.1929 110.53 12.7995 110.625ZM11.224 123.235C11.8362 123.284 12.2935 123.819 12.2452 124.431C12.2309 124.614 12.2168 124.796 12.203 124.979C12.1569 125.591 11.623 126.05 11.0106 126.004C10.3982 125.958 9.93922 125.424 9.98539 124.812C9.99934 124.627 10.0136 124.442 10.0282 124.257C10.0764 123.644 10.6118 123.187 11.224 123.235ZM10.8176 129.303C11.4312 129.328 11.9079 129.846 11.8823 130.46C11.7988 132.463 11.7517 134.475 11.7416 136.497C11.7411 136.592 11.7288 136.684 11.706 136.772C11.7282 136.86 11.7399 136.952 11.7398 137.047C11.7396 137.138 11.7396 137.23 11.7396 137.322C11.7396 137.414 11.7396 137.506 11.7398 137.599C11.7408 138.213 11.2438 138.712 10.6297 138.713C10.0156 138.714 9.51689 138.217 9.51586 137.602C9.5157 137.509 9.51562 137.415 9.51562 137.322C9.51562 137.229 9.5157 137.136 9.51586 137.043C9.51602 136.947 9.5284 136.853 9.55152 136.764C9.52899 136.675 9.51723 136.582 9.51771 136.486C9.52793 134.437 9.57569 132.398 9.66033 130.367C9.68591 129.754 10.2041 129.277 10.8176 129.303ZM10.6908 142.039C11.3045 142.017 11.8195 142.497 11.8411 143.111C11.8475 143.294 11.8543 143.477 11.8613 143.66C11.8849 144.273 11.4066 144.79 10.7929 144.814C10.1793 144.837 9.66265 144.359 9.63903 143.745C9.63189 143.56 9.62507 143.375 9.61855 143.189C9.59698 142.575 10.077 142.06 10.6908 142.039ZM10.9767 148.134C11.5892 148.089 12.1216 148.55 12.1659 149.163C12.312 151.184 12.4953 153.195 12.7149 155.195C12.7253 155.29 12.7235 155.383 12.7108 155.473C12.743 155.558 12.7653 155.648 12.776 155.743C12.7967 155.925 12.8176 156.108 12.8389 156.29C12.9101 156.9 12.4733 157.452 11.8633 157.523C11.2533 157.594 10.7011 157.158 10.63 156.548C10.6084 156.363 10.5871 156.178 10.5662 155.993C10.5554 155.897 10.557 155.803 10.5699 155.712C10.5372 155.626 10.5148 155.534 10.5043 155.438C10.2816 153.411 10.0959 151.372 9.94777 149.323C9.90349 148.71 10.3642 148.178 10.9767 148.134ZM12.3042 160.814C12.9114 160.723 13.4782 161.14 13.5701 161.747C13.5976 161.929 13.6254 162.111 13.6535 162.292C13.7475 162.899 13.3317 163.467 12.7248 163.561C12.1179 163.655 11.5497 163.24 11.4558 162.633C11.4273 162.449 11.3991 162.265 11.3712 162.08C11.2793 161.473 11.697 160.906 12.3042 160.814ZM13.2885 166.832C13.8918 166.717 14.4738 167.114 14.5885 167.717C14.9663 169.705 15.3805 171.681 15.8303 173.643C15.8516 173.736 15.8606 173.829 15.8584 173.92C15.9004 174.001 15.933 174.088 15.9547 174.181C15.9964 174.36 16.0385 174.539 16.0808 174.718C16.2222 175.316 15.8523 175.915 15.2546 176.056C14.657 176.198 14.0579 175.828 13.9166 175.23C13.8737 175.049 13.831 174.867 13.7887 174.686C13.7668 174.591 13.7575 174.497 13.7598 174.405C13.7173 174.323 13.6843 174.234 13.6627 174.14C13.2066 172.151 12.7866 170.148 12.4036 168.132C12.289 167.529 12.6852 166.947 13.2885 166.832ZM16.0739 179.273C16.6663 179.111 17.2777 179.46 17.4395 180.053C17.4879 180.23 17.5365 180.407 17.5855 180.584C17.7493 181.176 17.4022 181.788 16.8104 181.952C16.2185 182.116 15.6059 181.769 15.4421 181.177C15.3925 180.998 15.3431 180.818 15.2941 180.638C15.1323 180.046 15.4815 179.435 16.0739 179.273ZM17.7517 185.14C18.3376 184.956 18.9617 185.281 19.1458 185.867C19.7522 187.798 20.3938 189.713 21.0699 191.612C21.1018 191.702 21.1215 191.792 21.1299 191.883C21.1808 191.958 21.2232 192.041 21.2554 192.13C21.3175 192.303 21.3799 192.475 21.4425 192.647C21.6525 193.225 21.3549 193.863 20.7778 194.073C20.2007 194.282 19.5626 193.985 19.3526 193.408C19.2891 193.233 19.2258 193.058 19.1629 192.883C19.1303 192.793 19.1101 192.701 19.1016 192.609C19.05 192.533 19.0072 192.449 18.9749 192.358C18.2894 190.433 17.6388 188.491 17.024 186.534C16.84 185.948 17.1658 185.324 17.7517 185.14ZM21.9672 197.175C22.5368 196.945 23.1847 197.221 23.4143 197.791C23.4829 197.961 23.5518 198.131 23.621 198.301C23.8526 198.87 23.5792 199.518 23.0105 199.75C22.4417 199.982 21.7929 199.708 21.5613 199.139C21.4911 198.967 21.4213 198.795 21.3517 198.622C21.1221 198.053 21.3977 197.405 21.9672 197.175ZM24.3157 202.805C24.8762 202.554 25.534 202.805 25.7849 203.365C26.6112 205.211 27.471 207.038 28.3637 208.846C28.4058 208.931 28.436 209.019 28.4548 209.108C28.5142 209.177 28.566 209.254 28.6084 209.34C28.6903 209.504 28.7724 209.668 28.8548 209.832C29.1304 210.381 28.909 211.049 28.3602 211.325C27.8114 211.601 27.143 211.379 26.8674 210.83C26.7839 210.664 26.7006 210.498 26.6177 210.331C26.5747 210.245 26.544 210.155 26.5248 210.065C26.4647 209.995 26.4122 209.917 26.3696 209.83C25.4646 207.997 24.5928 206.145 23.7552 204.274C23.5042 203.713 23.7552 203.056 24.3157 202.805ZM29.9011 214.267C30.4402 213.973 31.1157 214.171 31.4099 214.71C31.4979 214.871 31.5862 215.032 31.6747 215.193C31.9707 215.731 31.7746 216.408 31.2365 216.704C30.6985 217 30.0223 216.803 29.7262 216.265C29.6365 216.102 29.547 215.939 29.4578 215.776C29.1636 215.236 29.3621 214.561 29.9011 214.267ZM32.8867 219.585C33.4144 219.271 34.0968 219.444 34.4111 219.972C35.4451 221.708 36.5108 223.423 37.6073 225.117C37.6591 225.197 37.6992 225.281 37.7283 225.367C37.7952 225.429 37.8557 225.499 37.9077 225.579C38.008 225.733 38.1087 225.887 38.2095 226.04C38.5468 226.553 38.4042 227.243 37.891 227.58C37.3778 227.917 36.6883 227.775 36.351 227.262C36.3004 227.185 36.2498 227.107 36.1993 227.03C36.1478 226.952 36.0964 226.873 36.045 226.794C35.9923 226.713 35.9515 226.628 35.922 226.541C35.8542 226.479 35.793 226.407 35.7406 226.326C34.629 224.609 33.5486 222.87 32.5003 221.11C32.1861 220.582 32.3591 219.899 32.8867 219.585ZM39.7617 230.324C40.2631 229.969 40.957 230.088 41.3115 230.59C41.4176 230.74 41.5239 230.89 41.6304 231.039C41.9867 231.54 41.8699 232.234 41.3697 232.59C40.8694 232.946 40.1751 232.83 39.8189 232.329C39.7109 232.178 39.6031 232.026 39.4956 231.874C39.1411 231.372 39.2602 230.678 39.7617 230.324ZM43.3422 235.263C43.83 234.89 44.5279 234.983 44.9009 235.471C46.1281 237.076 47.3847 238.657 48.6698 240.214C48.7304 240.287 48.7799 240.366 48.8187 240.448C48.8922 240.502 48.9603 240.565 49.0211 240.638C49.1384 240.779 49.256 240.92 49.3738 241.061C49.7679 241.532 49.7057 242.233 49.2347 242.627C48.7638 243.022 48.0625 242.959 47.6683 242.488C47.5489 242.346 47.4298 242.203 47.3108 242.06C47.2492 241.986 47.1989 241.906 47.1596 241.823C47.0851 241.768 47.0161 241.704 46.9548 241.63C45.652 240.052 44.3782 238.449 43.1342 236.822C42.7612 236.334 42.8543 235.636 43.3422 235.263ZM51.4096 245.138C51.8669 244.728 52.5699 244.767 52.9798 245.224C53.1023 245.361 53.2251 245.497 53.3481 245.634C53.7595 246.09 53.7234 246.793 53.2675 247.204C52.8116 247.616 52.1084 247.58 51.697 247.124C51.5724 246.985 51.4479 246.847 51.3237 246.709C50.9138 246.251 50.9523 245.548 51.4096 245.138ZM55.5342 249.632C55.976 249.205 56.6799 249.218 57.1065 249.659C58.5095 251.112 59.9395 252.538 61.3956 253.938C61.4641 254.004 61.5224 254.076 61.5704 254.153C61.6496 254.198 61.7246 254.253 61.7934 254.319C61.9262 254.445 62.0592 254.572 62.1924 254.698C62.6381 255.121 62.6569 255.825 62.2344 256.27C61.8118 256.716 61.108 256.735 60.6624 256.312C60.5273 256.184 60.3924 256.056 60.2578 255.927C60.1881 255.861 60.1289 255.787 60.0803 255.709C60 255.664 59.9241 255.608 59.8546 255.541C58.3786 254.123 56.9291 252.677 55.5069 251.204C55.0803 250.763 55.0925 250.059 55.5342 249.632ZM64.6831 258.514C65.0902 258.055 65.793 258.012 66.2527 258.419C66.3902 258.541 66.5278 258.662 66.6657 258.784C67.1268 259.189 67.1717 259.892 66.7661 260.353C66.3605 260.814 65.6579 260.859 65.1968 260.453C65.057 260.331 64.9175 260.207 64.7782 260.084C64.3185 259.677 64.2759 258.974 64.6831 258.514ZM69.2968 262.504C69.6866 262.03 70.3873 261.961 70.8619 262.351C72.4219 263.632 74.0064 264.884 75.6145 266.108C75.6901 266.165 75.7563 266.231 75.8129 266.302C75.8966 266.337 75.9775 266.383 76.0533 266.44C76.1998 266.551 76.3464 266.661 76.4933 266.771C76.9846 267.14 77.0842 267.837 76.7157 268.328C76.3473 268.819 75.6503 268.919 75.159 268.551C75.0101 268.439 74.8614 268.327 74.713 268.215C74.6361 268.157 74.5688 268.091 74.5116 268.019C74.4267 267.983 74.3448 267.936 74.2681 267.878C72.638 266.638 71.0318 265.368 69.4504 264.069C68.9758 263.68 68.9071 262.979 69.2968 262.504ZM79.4068 270.276C79.7584 269.772 80.4516 269.649 80.9551 270.001C81.0274 270.051 81.0998 270.102 81.1722 270.152C81.2504 270.206 81.3287 270.261 81.407 270.315C81.9117 270.665 82.0373 271.358 81.6875 271.862C81.3376 272.367 80.6449 272.493 80.1401 272.143C79.9872 272.037 79.8345 271.931 79.682 271.824C79.1785 271.473 79.0553 270.779 79.4068 270.276ZM84.4499 273.708C84.7824 273.192 85.4705 273.043 85.9869 273.375C87.6832 274.468 89.4014 275.529 91.1405 276.559C91.2224 276.607 91.2957 276.665 91.3602 276.729C91.4476 276.754 91.5332 276.791 91.6153 276.839C91.7735 276.932 91.9319 277.025 92.0904 277.117C92.621 277.426 92.8003 278.107 92.4911 278.638C92.1818 279.168 91.501 279.348 90.9704 279.038C90.8856 278.989 90.8008 278.939 90.716 278.89C90.6402 278.845 90.5645 278.801 90.4888 278.756C90.4056 278.708 90.3311 278.649 90.2658 278.584C90.1772 278.559 90.0904 278.522 90.0074 278.472C88.2443 277.429 86.5026 276.353 84.7829 275.245C84.2665 274.913 84.1175 274.225 84.4499 273.708ZM95.3883 280.261C95.6793 279.72 96.3536 279.518 96.8944 279.809C97.0562 279.896 97.2182 279.983 97.3803 280.069C97.9221 280.358 98.1269 281.032 97.8378 281.574C97.5486 282.115 96.875 282.32 96.3332 282.031C96.1689 281.943 96.0047 281.855 95.8406 281.767C95.2998 281.476 95.0973 280.802 95.3883 280.261ZM100.793 283.087C101.064 282.535 101.73 282.308 102.281 282.578C104.092 283.466 105.921 284.321 107.768 285.143C107.855 285.182 107.935 285.23 108.006 285.286C108.096 285.301 108.185 285.328 108.272 285.366C108.44 285.44 108.609 285.514 108.777 285.587C109.34 285.833 109.597 286.488 109.351 287.051C109.106 287.614 108.45 287.871 107.887 287.625C107.717 287.551 107.546 287.476 107.376 287.401C107.287 287.362 107.207 287.313 107.134 287.256C107.043 287.241 106.953 287.214 106.865 287.175C104.992 286.342 103.137 285.475 101.302 284.575C100.75 284.304 100.523 283.638 100.793 283.087ZM112.417 288.327C112.643 287.756 113.289 287.477 113.86 287.703C114.031 287.771 114.202 287.838 114.373 287.905C114.945 288.129 115.226 288.775 115.002 289.346C114.778 289.918 114.132 290.2 113.561 289.975C113.477 289.943 113.394 289.91 113.31 289.877C113.221 289.842 113.131 289.806 113.041 289.771C112.47 289.544 112.191 288.898 112.417 288.327ZM118.114 290.506C118.319 289.927 118.954 289.623 119.533 289.828C121.433 290.499 123.35 291.136 125.282 291.737C125.373 291.766 125.457 291.804 125.535 291.852C125.625 291.856 125.717 291.872 125.808 291.9C125.983 291.954 126.159 292.008 126.334 292.061C126.922 292.239 127.253 292.86 127.075 293.448C126.896 294.036 126.275 294.367 125.688 294.189C125.51 294.135 125.332 294.08 125.154 294.026C125.062 293.997 124.976 293.958 124.898 293.91C124.806 293.906 124.713 293.889 124.621 293.861C122.662 293.251 120.719 292.605 118.792 291.925C118.213 291.72 117.91 291.085 118.114 290.506ZM130.271 294.359C130.429 293.766 131.038 293.413 131.631 293.571C131.809 293.619 131.986 293.665 132.163 293.712C132.757 293.868 133.112 294.476 132.956 295.07C132.799 295.664 132.191 296.019 131.597 295.863C131.493 295.835 131.389 295.808 131.285 295.78C131.209 295.76 131.134 295.74 131.058 295.72C130.465 295.562 130.112 294.953 130.271 294.359ZM136.185 295.861C136.321 295.262 136.917 294.886 137.515 295.022C139.479 295.467 141.456 295.876 143.446 296.249C143.54 296.267 143.629 296.296 143.711 296.334C143.802 296.328 143.895 296.333 143.989 296.35C144.08 296.367 144.17 296.383 144.261 296.4C144.865 296.51 145.266 297.089 145.156 297.693C145.046 298.297 144.467 298.698 143.863 298.588C143.771 298.571 143.679 298.554 143.587 298.537C143.492 298.52 143.402 298.491 143.318 298.452C143.226 298.458 143.132 298.453 143.037 298.435C141.019 298.057 139.015 297.642 137.024 297.191C136.425 297.055 136.049 296.46 136.185 295.861Z" fill="#C7CAFF"/>
<path d="M136.618 136.864C140.668 136.873 143.958 133.596 143.966 129.547L144.063 84.065C144.072 80.0152 140.796 76.7252 136.746 76.7163C132.696 76.7075 129.406 79.984 129.397 84.0338L129.3 129.515C129.292 133.566 132.568 136.856 136.618 136.864Z" fill="#C7CAFF"/>
<path d="M212.207 137.025C216.257 137.034 219.547 133.758 219.556 129.708L219.652 84.2261C219.661 80.1763 216.385 76.8863 212.335 76.8775C208.285 76.8686 204.995 80.1451 204.986 84.1949L204.889 129.677C204.881 133.726 208.157 137.016 212.207 137.025Z" fill="#C7CAFF"/>
<path d="M174.546 82.7784C199.707 82.832 220.062 103.273 220.008 128.435L219.968 147.492C219.914 172.654 199.518 172.019 174.356 171.965C149.194 171.912 128.795 172.461 128.849 147.299L128.89 128.241C128.943 103.08 149.384 82.7248 174.546 82.7784Z" fill="url(#paint0_radial)"/>
<path d="M123.743 138.252C123.684 165.877 146.038 185.181 173.663 185.24C201.289 185.299 223.724 166.089 223.783 138.464C223.808 126.756 214.258 126.656 214.246 131.864C214.228 140.276 213.68 149.928 211.148 152.388C206.638 156.769 191.604 159.912 173.717 159.874C155.988 159.837 141.009 156.534 136.689 153.753C134.127 152.104 134.574 138.098 134.584 133.43C134.597 127.077 123.766 127.265 123.743 138.252Z" fill="url(#paint1_linear)"/>
<path d="M186.237 136.97C188.265 136.974 189.913 135.334 189.918 133.305L189.955 115.906C189.959 113.878 188.318 112.23 186.289 112.226C184.261 112.221 182.613 113.862 182.609 115.89L182.572 133.29C182.567 135.318 184.208 136.965 186.237 136.97Z" fill="white"/>
<path d="M186.234 138.118C183.576 138.112 181.418 135.945 181.424 133.288L181.461 115.888C181.467 113.231 183.633 111.072 186.291 111.078C188.949 111.084 191.107 113.251 191.101 115.909L191.064 133.308C191.059 135.966 188.892 138.124 186.234 138.118ZM186.287 113.373C184.894 113.37 183.759 114.501 183.756 115.893L183.719 133.292C183.716 134.684 184.847 135.82 186.239 135.823C187.632 135.826 188.767 134.695 188.769 133.303L188.806 115.903C188.809 114.512 187.679 113.376 186.287 113.373Z" fill="white"/>
<path d="M162.199 136.919C164.228 136.923 165.875 135.283 165.88 133.254L165.917 115.855C165.921 113.827 164.28 112.178 162.252 112.174C160.223 112.17 158.576 113.811 158.571 115.839L158.534 133.238C158.53 135.266 160.171 136.914 162.199 136.919Z" fill="white"/>
<path d="M162.197 138.067C159.539 138.061 157.381 135.894 157.387 133.236L157.424 115.837C157.43 113.179 159.597 111.021 162.254 111.027C164.912 111.033 167.07 113.2 167.064 115.857L167.028 133.257C167.022 135.914 164.855 138.072 162.197 138.067ZM162.25 113.322C160.857 113.319 159.722 114.45 159.719 115.842L159.682 133.241C159.679 134.633 160.81 135.769 162.202 135.771C163.595 135.774 164.73 134.643 164.733 133.251L164.769 115.852C164.773 114.461 163.642 113.325 162.25 113.322Z" fill="white"/>
<path d="M278.749 172.82C292.019 172.82 302.777 162.062 302.777 148.792C302.777 135.522 292.019 124.764 278.749 124.764C265.479 124.764 254.721 135.522 254.721 148.791C254.721 162.061 265.479 172.82 278.749 172.82Z" fill="#FFC400"/>
<path d="M288.857 147.687C288.362 149.563 288.18 151.523 288.334 153.454C288.389 154.175 288.487 154.896 288.403 155.609C288.257 156.87 287.39 157.905 286.838 159.011C286.153 160.362 285.49 161.663 284.183 162.524C280.877 164.701 276.531 160.277 274.274 158.213C272.953 157.002 271.682 155.722 270.564 154.322C269.732 153.293 268.978 152.201 268.355 151.032C267.328 149.108 266.769 146.854 266.741 144.615C266.727 144.3 266.735 143.992 266.755 143.684C266.755 143.677 266.755 143.67 266.755 143.67C266.776 143.11 266.84 142.564 266.931 142.025C267.405 139.282 268.776 136.692 271.053 135.047C273.842 133.039 277.321 132.549 280.661 133.143C282.827 133.528 284.657 135.11 286.02 136.867C286.998 138.12 287.739 139.463 288.186 140.52C289.256 143.025 289.549 145.097 288.857 147.687Z" fill="url(#paint2_linear)"/>
<path d="M286.758 135.776C287.064 136.563 287.164 137.295 286.758 137.778C285.993 138.69 284.756 139.28 283.254 139.28C282.298 139.28 278.749 138.84 277.748 139.781C276.747 140.722 277.062 141.166 276.747 141.783C276.122 143.012 275.175 143.422 274.164 144.356C274.164 143.386 272.22 142.847 271.639 143.078C271.057 143.307 270.649 143.854 270.448 144.443C270.246 145.032 270.225 145.671 270.239 146.289C270.246 146.85 270.283 147.417 270.441 147.956C270.577 148.401 270.792 148.825 270.921 149.278C271.223 150.348 273.753 151.936 273.086 152.812C272.497 153.589 271.584 154.211 270.637 154.412C269.784 153.356 269.032 152.145 268.394 150.945C267.339 148.969 266.765 146.656 266.736 144.356C266.736 144.356 266.729 143.89 266.751 143.401C266.751 143.394 266.751 143.386 266.751 143.386C266.701 141.475 266.974 139.299 267.823 137.6C269.58 134.089 271.989 132.908 274.163 132.325C276.98 131.568 278.535 131.54 282.138 132.545C284.399 133.174 286.335 134.687 286.758 135.776Z" fill="url(#paint3_linear)"/>
<path d="M267.924 161.242C263.854 160.903 260.583 161.075 259.414 162.243C266.923 172.756 279.938 173.756 285.945 171.254C285.945 171.254 284.685 167.75 283.442 166.749C281.539 165.216 273.931 161.743 267.924 161.242Z" fill="#E9EAFF"/>
<path d="M27.3853 216.67C40.9321 216.67 51.9137 205.688 51.9137 192.142C51.9137 178.595 40.9321 167.613 27.3853 167.613C13.8386 167.613 2.85693 178.595 2.85693 192.142C2.85693 205.688 13.8386 216.67 27.3853 216.67Z" fill="#FF0068"/>
<path d="M19.0549 197.519C18.8113 196.304 16.1354 194.604 16.3789 193.51C16.7432 191.445 20.1503 189.866 20.6369 187.801C21.0022 186.343 21.1235 184.884 21.6101 183.549C22.3407 181.605 23.8004 179.904 25.6255 179.054C26.1121 178.811 26.5987 178.69 27.0853 178.567C27.8149 178.325 28.545 178.325 29.2757 178.325C30.1265 178.325 30.8567 178.567 31.5873 178.931C32.3169 179.296 33.0471 179.661 33.6559 180.268C34.3856 180.876 34.9934 181.726 35.48 182.576C36.4542 184.155 37.062 185.856 37.6704 187.557C38.157 188.894 38.5223 190.108 38.8866 191.445C39.4955 193.51 39.3731 196.061 38.7653 198.247C38.643 198.612 38.5223 198.855 38.4 199.22C38.2787 199.463 38.1564 199.706 38.1564 199.949C38.1564 200.071 38.0352 200.071 38.0352 200.192C37.7911 200.8 37.3045 201.285 36.9397 201.771C34.8711 204.2 31.7075 205.537 28.6663 205.537C26.3546 205.537 24.043 204.808 22.2179 203.471C21.1224 202.622 20.2716 201.406 19.9062 200.07C19.4202 199.22 19.1766 198.37 19.0549 197.519Z" fill="url(#paint4_linear)"/>
<path d="M38.0345 188.651C37.3049 187.436 37.7915 186.1 36.3318 186.1C34.872 186.1 32.0738 186.585 30.7353 186.707C28.9102 186.829 27.0851 186.585 25.2601 186.707C25.017 186.707 24.6512 186.707 24.5305 186.95C24.0439 187.314 24.0439 187.922 24.0439 188.53C24.0439 190.231 23.435 192.053 22.5841 193.511H22.2188C21.7322 192.782 21.0026 192.417 20.1502 192.417C19.6636 192.417 19.177 192.539 18.8117 192.782C18.4474 193.025 18.2038 193.267 17.9608 193.631C16.9866 192.296 16.1358 190.837 15.7704 189.38V189.258C15.2838 186.343 15.8927 182.82 17.7168 180.511C20.2725 177.353 25.017 176.624 28.9107 176.624C31.8313 176.624 34.9938 177.596 36.8188 179.904C37.5485 180.876 37.9143 181.969 38.4009 183.063C39.13 184.52 39.13 187.314 38.0345 188.651Z" fill="#7E3734"/>
<path d="M20.8804 198.978C19.0553 200.193 16.5001 200.193 14.675 198.856C12.85 197.641 11.7556 195.333 11.8768 193.147C11.8768 192.297 12.1199 191.325 12.7287 190.717C13.4583 189.745 14.675 189.38 15.8923 189.38C16.5001 189.38 17.2297 189.503 17.8386 189.745L18.8118 192.782C18.4475 193.025 18.2039 193.268 17.9599 193.632C17.7168 193.996 17.5956 194.361 17.5956 194.847C17.5956 196.184 18.691 197.277 20.0285 197.277H20.1508L20.8804 198.978Z" fill="#7E3734"/>
<path d="M24.3817 207.256C16.4142 206.862 13.3901 209.788 12.8682 211.261C22.7757 218.134 34.7685 215.643 37.8972 213.68C37.8977 213.68 34.9361 207.779 24.3817 207.256Z" fill="#F1F1FF"/>
<path d="M45.4528 54.2665C58.7232 54.2665 69.4806 43.5091 69.4806 30.2387C69.4806 16.9683 58.7227 6.21094 45.4528 6.21094C32.1829 6.21094 21.425 16.9683 21.425 30.2387C21.425 43.5091 32.1824 54.2665 45.4528 54.2665Z" fill="#31E8B7"/>
<path d="M53.4012 34.9643C52.913 37.0876 51.5969 39.0219 49.7573 40.1923C49.3144 40.4739 48.8346 40.7127 48.3397 40.8923C47.6012 41.1738 46.8232 41.3336 46.0363 41.3789C45.1761 41.4278 44.3049 41.3388 43.4853 41.0874C42.6506 40.8319 41.8705 40.4317 41.1674 39.9243C40.329 39.3248 39.575 38.5869 38.9364 37.7766C37.7442 36.2908 36.8844 34.574 36.0669 32.853C35.4611 31.5635 34.8736 30.264 34.3032 28.9593C33.4196 26.9167 33.2343 24.1737 33.6543 21.7678C33.7162 21.4176 33.7932 21.07 33.8734 20.7395C33.9452 20.471 34.0206 20.2201 34.1034 19.9698C34.1294 19.8725 34.1606 19.7856 34.1939 19.6903C34.4354 19.0273 34.7825 18.4169 35.1775 17.8351C37.0484 15.0821 40.1536 13.2118 43.4577 12.8402C46.7618 12.4686 50.2074 13.5979 52.6471 15.8575C53.3132 16.4753 53.9153 17.1799 54.2312 18.0318C54.4446 18.6074 54.5242 19.2371 54.5908 19.8538C54.7433 21.1652 54.8994 22.4938 54.8422 23.8146C54.7532 26.0284 54.0813 28.1829 53.8518 30.3832C53.6967 31.9173 53.7462 33.4656 53.4012 34.9643Z" fill="url(#paint5_linear)"/>
<path opacity="0.24" d="M48.3393 40.8916C47.6009 41.1731 46.8228 41.3329 46.036 41.3781C45.1758 41.4271 44.3041 41.3381 43.485 41.0867C42.6502 40.8312 41.8701 40.431 41.1671 39.9236C40.3287 39.3241 39.5751 38.5862 38.9361 37.7759C37.7438 36.2901 36.8841 34.5733 36.0665 32.8523C35.4608 31.5627 34.8732 30.2622 34.3029 28.9586C33.4192 26.916 33.2334 24.1729 33.6534 21.7671C33.7153 21.4169 33.7923 21.0692 33.8725 20.7388L37.4498 25.4682C38.119 25.7435 38.4573 26.4815 38.6707 27.1773C39.2301 29.0304 39.3217 30.9887 39.6324 32.9028C39.9415 34.8241 40.5145 36.7751 41.8358 38.2C42.8402 39.2835 44.2146 39.971 45.6306 40.3816C46.5148 40.6345 47.426 40.7828 48.3393 40.8916Z" fill="#D7B7D7"/>
<path d="M54.9244 27.6071C54.7422 27.4567 54.5663 27.3157 54.3837 27.1746C52.5045 25.7019 50.4723 24.4352 48.324 23.3944C47.3144 22.9141 43.7902 22.6107 42.6724 22.6924C42.2712 22.7236 41.8585 22.8303 41.5509 23.0931C41.3292 23.2882 41.1757 23.5557 41.0315 23.817C39.8091 26.0896 40.1635 28.7109 39.8841 31.2744C39.3793 31.2604 38.8672 31.2453 38.3551 31.2302C38.5695 30.0587 38.6158 28.8655 38.5044 27.681C38.4524 27.1512 38.3551 26.609 38.0475 26.177C37.7389 25.7524 37.1529 25.4781 36.6653 25.6842C36.0133 25.9533 35.905 26.8036 35.8863 27.5103C35.8649 28.8087 37.0749 32.5754 36.6794 33.1286C36.593 33.2489 36.4842 33.3587 36.3562 33.443C36.2578 33.2499 36.1678 33.0506 36.071 32.8502C35.459 31.5669 34.8736 30.2633 34.3042 28.9544C33.1489 26.2874 33.1895 22.4509 34.1976 19.6896C34.4359 19.0277 34.7768 18.412 35.1754 17.8354C37.0546 15.084 40.1536 13.2163 43.4608 12.8405C46.769 12.4664 50.2136 13.5972 52.6481 15.8553C53.3121 16.4678 53.9158 17.1818 54.2291 18.0269C54.4456 18.6098 54.5236 19.2364 54.5877 19.853C54.7365 21.1046 54.8848 22.3562 54.8453 23.6125C54.227 23.3491 53.5921 23.0921 52.9624 22.8495C52.7995 22.7887 52.5882 22.7366 52.4691 22.8678C52.3499 23.001 52.4295 23.2133 52.5258 23.3673C52.9671 24.0741 53.6056 24.6449 54.124 25.2996C54.2967 25.5177 54.4591 25.7581 54.5882 26.0095C54.8562 26.5059 55.0066 27.0565 54.9244 27.6071Z" fill="#473765"/>
<path d="M57.5861 50.1619C54.0249 52.2493 49.8788 53.4457 45.4533 53.4457C38.9825 53.4457 33.1092 50.8879 28.7893 46.7277C30.3537 45.0858 33.3403 43.4341 38.445 43.4341C47.9559 43.4341 52.9617 44.936 55.9655 47.9392C56.679 48.6532 57.2046 49.4141 57.5861 50.1619Z" fill="#EEEEFC"/>
<path d="M238.954 188.117H229.83C229.092 188.117 228.724 189.039 229.277 189.592L234.714 194.2V209.537C234.714 212.209 236.926 214.421 239.599 214.421H331.732C334.405 214.421 336.617 212.209 336.617 209.537V193.002C336.617 190.329 334.405 188.117 331.732 188.117H239.599C239.414 188.117 239.138 188.117 238.954 188.117Z" fill="#FFC400"/>
<path d="M249.924 262.699H242.404C241.796 262.699 241.492 263.459 241.948 263.915L246.43 267.713V280.355C246.43 282.557 248.253 284.38 250.456 284.38H326.397C328.6 284.38 330.423 282.557 330.423 280.355V266.726C330.423 264.523 328.6 262.7 326.397 262.7H250.456C250.304 262.699 250.076 262.699 249.924 262.699Z" fill="#FFC400"/>
<path d="M293.584 227.903H210.6C208.193 227.903 206.201 229.895 206.201 232.302V247.195C206.201 249.602 208.193 251.594 210.6 251.594H293.584C295.991 251.594 297.983 249.602 297.983 247.195V233.382L302.881 229.231C303.379 228.733 303.047 227.903 302.383 227.903H294.165C293.999 227.903 293.75 227.903 293.584 227.903Z" fill="#E2E2F9"/>
<path d="M117.566 257.136H61.0558C59.4165 257.136 58.0598 258.493 58.0598 260.132V270.273C58.0598 271.913 59.4165 273.269 61.0558 273.269H117.565C119.205 273.269 120.561 271.913 120.561 270.273V260.867L123.897 258.041C124.236 257.701 124.01 257.136 123.557 257.136H117.961C117.848 257.136 117.679 257.136 117.566 257.136Z" fill="#E2E2F9"/>
<path d="M16.1616 70.3916H9.08405C8.51212 70.3916 8.22642 71.1067 8.65524 71.5355L12.8731 75.1097V87.0057C12.8731 89.079 14.5889 90.7948 16.6622 90.7948H88.1283C90.2016 90.7948 91.9174 89.079 91.9174 87.0057V74.1802C91.9174 72.1069 90.2016 70.3911 88.1283 70.3911H16.6617C16.5186 70.3916 16.3042 70.3916 16.1616 70.3916Z" fill="#31E8B7"/>
<path d="M39.0935 228.953H32.0159C31.444 228.953 31.1583 229.668 31.5871 230.097L35.805 233.671V245.567C35.805 247.64 37.5208 249.356 39.5941 249.356H111.06C113.133 249.356 114.849 247.64 114.849 245.567V232.742C114.849 230.668 113.133 228.953 111.06 228.953H39.5936C39.451 228.953 39.2361 228.953 39.0935 228.953Z" fill="#FF0068"/>
<path d="M33.9152 128.243H28.0814C27.6099 128.243 27.3742 128.832 27.7281 129.186L31.2044 132.132V141.938C31.2044 143.647 32.6183 145.061 34.3274 145.061H93.2329C94.9419 145.061 96.3558 143.647 96.3558 141.938V131.366C96.3558 129.657 94.9419 128.243 93.2329 128.243H34.3274C34.2097 128.243 34.0328 128.243 33.9152 128.243Z" fill="#31E8B7"/>
<path d="M67.7811 101.252H3.41284C1.54561 101.252 0 102.798 0 104.665V116.217C0 118.084 1.54509 119.63 3.41284 119.63H67.7811C69.6483 119.63 71.1934 118.085 71.1934 116.217V105.502L74.9924 102.283C75.3785 101.897 75.1209 101.252 74.6062 101.252H68.2317C68.1027 101.252 67.9096 101.252 67.7811 101.252Z" fill="#E2E2F9"/>
<defs>
<radialGradient id="paint0_radial" cx="0" cy="0" r="1" gradientUnits="userSpaceOnUse" gradientTransform="translate(145.811 74.9232) rotate(0.120321) scale(101.127)">
<stop stop-color="#8805C8"/>
<stop offset="0.6641" stop-color="#5906EF"/>
<stop offset="1" stop-color="#4707FF"/>
</radialGradient>
<linearGradient id="paint1_linear" x1="173.796" y1="131.654" x2="173.695" y2="179.581" gradientUnits="userSpaceOnUse">
<stop offset="0.0051" stop-color="#E9E9F7"/>
<stop offset="0.9989" stop-color="#C7CAFF"/>
</linearGradient>
<linearGradient id="paint2_linear" x1="272.736" y1="137.767" x2="287.3" y2="158.359" gradientUnits="userSpaceOnUse">
<stop offset="0.0017" stop-color="#A1556B"/>
<stop offset="0.1248" stop-color="#A8626E"/>
<stop offset="0.3308" stop-color="#B17071"/>
<stop offset="0.5809" stop-color="#B67872"/>
<stop offset="0.9938" stop-color="#B77B73"/>
</linearGradient>
<linearGradient id="paint3_linear" x1="277.074" y1="153.368" x2="276.863" y2="139.438" gradientUnits="userSpaceOnUse">
<stop stop-color="#3D1A11" stop-opacity="0"/>
<stop offset="0.584" stop-color="#30140D" stop-opacity="0.6934"/>
<stop offset="0.8422" stop-color="#29110B"/>
</linearGradient>
<linearGradient id="paint4_linear" x1="16.3166" y1="191.931" x2="39.2405" y2="191.931" gradientUnits="userSpaceOnUse">
<stop stop-color="#FFBFC3"/>
<stop offset="1" stop-color="#FBE4DD"/>
</linearGradient>
<linearGradient id="paint5_linear" x1="33.0607" y1="23.7745" x2="54.8413" y2="29.6014" gradientUnits="userSpaceOnUse">
<stop stop-color="#FFBFC3"/>
<stop offset="1" stop-color="#FBE4DD"/>
</linearGradient>
</defs>
</svg>
